<svg xmlns="http://www.w3.org/2000/svg" xmlns:xlink="http://www.w3.org/1999/xlink" xmlns:inkscape="http://www.inkscape.org/namespaces/inkscape" version="1.1" width="1200" height="708.661" viewBox="0 0 1200 708.661">
<defs>
<clipPath id="clip_1">
<path transform="matrix(1,0,0,-1,0,708.661)" d="M0 708.661H1200V0H0Z"/>
</clipPath>
</defs>
<g clip-path="url(#clip_1)">
<path transform="matrix(1,0,0,-1,755.5705,308.1832)" d="M0 0C-.137-.728-1.308-2.172-3.516-4.339-4.839-5.64-6.43-6.911-8.282-8.136-10.136-9.369-11.659-10.275-12.848-10.849-26.272-22.856-36.352-31.43-43.078-36.562-45.971-38.519-49.315-40.472-53.104-42.422-56.903-44.383-59.616-45.863-61.24-46.871L-67.623-49.151C-67.488-48.431-67.385-47.365-67.3-45.951-67.225-44.548-66.892-43.259-66.315-42.101-55.701-25.76-42.778-13.499-27.53-5.323-26.341-4.749-24.501-4.042-21.993-3.206-19.495-2.38-17.577-1.305-16.252-.004-14.117 1.797-12.111 2.888-10.232 3.251-9.109 3.469-6.812 3.21-3.331 2.495-.914 1.917 .2 1.085 0 0M-273.05-52.793C-273.185-53.521-274.358-54.967-276.564-57.133-277.887-58.435-279.476-59.706-281.328-60.93-283.184-62.163-284.705-63.07-285.898-63.643-299.32-75.65-309.4-84.225-316.124-89.356-319.019-91.312-322.361-93.266-326.152-95.217-329.951-97.176-332.663-98.657-334.288-99.665L-340.669-101.944C-340.535-101.225-340.433-100.159-340.348-98.746-340.273-97.343-339.942-96.052-339.361-94.894-328.747-78.554-315.824-66.292-300.58-58.116-299.39-57.542-297.549-56.836-295.041-56-292.541-55.174-290.625-54.099-289.298-52.798-287.163-50.996-285.157-49.906-283.28-49.542-282.155-49.326-279.86-49.584-276.377-50.3-273.962-50.878-272.848-51.709-273.05-52.793M81.79-78.821C84.665-73.037 88.498-66.022 93.276-57.779 107.706-30.594 116.042-14.864 118.283-10.592L123.364-.721 134.088 19.13 139.172 29.002C139.743 30.157 140.139 31.802 140.358 33.937 140.568 36.068 140.899 37.349 141.343 37.788 143.212 38.15 144.718 38.962 145.859 40.229 146.99 41.492 147.915 43.062 148.63 44.947 149.332 46.825 150.165 48.381 151.119 49.611 155.431 55.323 160.016 63.528 164.898 74.236 168.988 82.689 172.058 88.512 174.097 91.701 191.764 118.816 205.187 142.498 214.363 162.751 215.713 166.15 216.198 169.724 215.813 173.489 215.428 177.245 214.211 179.453 212.164 180.103 209.362 180.607 206.32 179.758 203.025 177.552 199.721 175.345 196.616 172.212 193.701 168.167 175.52 140.25 151.479 100.219 121.585 48.084L111.163 29.859C108.035 24.434 105.048 19.217 102.196 14.195 92.899 6.135 85.842-.873 81.075-6.806 76.899-11.796 72.558-16.214 68.056-20.042 63.553-23.878 57.116-28.872 48.756-35.015L34.887-45.54C34.442-45.976 33.3-46.288 31.463-46.463 29.619-46.648 28.578-46.416 28.346-45.759 28.101-45.112 27.447-43.759 26.391-41.692 25.324-39.634 25.032-37.339 25.503-34.805 25.838-33 26.768-30.9 28.294-28.513 29.442-26.2 30.157-24.322 30.425-22.874L30.727-21.247C31.219-16.625 33.002-11.396 36.071-5.573 39.131 .247 41.241 4.314 42.399 6.631L51.74 27.782C53.533 31.609 53.596 34.414 51.944 36.187 50.283 37.957 47.815 39.743 44.544 41.554 43.243 42.348 41.659 42.563 39.789 42.203 36.041 41.478 32.083 38.621 27.907 33.631 24.164 29.069 20.427 26.434 16.687 25.711 14.438 25.276 11.603 25.592 8.197 26.683 4.852 28.129 .181 28.271-5.805 27.113-10.634 26.179-15.588 24.353-20.241 22.722-25.411 20.909-30.424 18.647-35.207 15.974-42.637 11.82-48.823 6.496-55.324 1.097-63.09-5.353-70.741-11.971-77.78-19.22-83.973-25.602-89.289-33.026-93.743-41.463-102.544-52.159-113.139-65.4-125.58-81.272-135.392-93.283-140.776-99.895-141.724-101.124-166.713-130.71-185.304-153.993-197.48-170.988-198.426-172.217-199.786-173.704-201.554-175.434-203.317-177.174-204.865-178.689-206.191-179.992L-205.766-168.929C-205.698-168.573-204.9-167.194-203.373-164.807-199.744-158.877-196.339-152.206-193.162-144.794-189.983-137.382-188.004-132.555-187.225-130.314-178.605-109.13-166.58-85.196-151.152-58.504L-144.643-46.789C-142.983-43.682-139.523-37.172-134.25-27.264-128.984-17.357-124.453-8.033-120.662 .722-119.89 2.963-118.627 5.38-116.875 7.99-115.132 10.59-113.971 12.474-113.39 13.632-108.066 20.934-104.681 27.513-103.227 33.373-102.188 37.053-99.871 40.296-96.28 43.082-92.699 45.866-88.689 47.507-84.26 48.02-78.709 48.743-72.541 50.368-65.746 52.907-58.964 55.436-52.402 58.184-46.071 61.156-36.177 65.855-27.003 69.549-18.556 72.228-18.123 72.654-17.644 73.27-17.131 74.072-16.629 74.862-16.335 75.442-16.267 75.807-16.888 76.382-17.537 76.779-18.214 76.999-18.902 77.21-19.731 77.572-20.72 78.084-35.302 77.356-48.863 76.302-61.392 74.926-62.449 75.063-64.907 74.507-68.748 73.241-72.597 71.974-75.639 71.124-77.886 70.69-80.511 70.182-81.753 70.285-81.617 71.015-81.215 73.183-78.82 78.352-74.408 86.526-70.004 94.697-66.409 100.441-63.623 103.774-63.122 104.566-62.544 105.723-61.895 107.244-61.261 108.756-60.868 109.878-60.732 110.607-59.516 113.276-59.193 116.477-59.764 120.206-60.341 123.925-61.463 126.152-63.13 126.875-65.865 127.735-69.154 127.017-73.012 124.703-76.878 122.386-80.044 119.421-82.517 115.806-83.609 113.846-85.356 110.722-87.779 106.424-90.204 102.115-92.439 98.374-94.466 95.195-95.857 93.529-99.486 88.122-105.331 78.978-111.184 69.824-114.859 65.109-116.354 64.821-128.103 61.846-143.097 55.99-161.326 47.238-166.592 44.127-170.535 40.4-173.15 36.062-173.72 34.906-173.558 33.369-172.65 31.454-171.737 29.538-170.602 28.361-169.242 27.93-168.554 27.711-167.319 27.075-165.532 26.033-163.738 24.983-161.72 24.677-159.472 25.111-157.602 25.473-155.441 26.415-152.988 27.934-147.213 31.837-141.701 34.3-136.454 35.315-133.838 35.82-132.059 35.642-131.138 34.774-130.215 33.908-130.363 32.653-131.561 31.032-132.769 29.401-134.623 27.213-137.11 24.47-139.61 21.715-141.024 19.44-141.358 17.635L-141.46 17.092-142.322 15.357-147.909 2.774C-154.071-10.965-159.303-20.695-163.613-26.405-166.818-30.546-169.756-35.095-172.454-40.002-180.956-47.471-187.484-54.015-191.972-59.6-196.149-64.59-200.49-69.008-204.992-72.836-209.495-76.671-215.932-81.667-224.293-87.808L-238.161-98.333C-238.606-98.77-239.746-99.081-241.583-99.256-243.429-99.441-244.468-99.209-244.703-98.552-244.947-97.905-245.601-96.553-246.657-94.486-247.722-92.429-248.016-90.133-247.545-87.599-247.211-85.794-246.278-83.694-244.753-81.307-243.604-78.995-242.891-77.116-242.624-75.668L-242.322-74.041C-241.827-69.419-240.046-64.19-236.975-58.367-233.915-52.547-231.807-48.48-230.649-46.164L-221.308-25.012C-219.515-21.185-219.45-18.379-221.104-16.607-222.764-14.836-225.233-13.051-228.505-11.24-229.803-10.446-231.39-10.23-233.259-10.592-237.008-11.317-240.966-14.173-245.139-19.163-248.882-23.726-252.621-26.361-256.362-27.084-258.608-27.518-261.443-27.201-264.849-26.111-268.194-24.665-272.865-24.524-278.855-25.681-281.101-26.115-282.82-26.627-284.011-27.201-285.578-27.856-288.373-28.829-292.408-30.132-296.443-31.434-300.622-33.028-304.94-34.909-309.268-36.79-313.126-39.105-316.52-41.853-319.548-44.53-324.464-48.617-331.257-54.114-338.056-59.611-344.579-65.579-350.828-72.015-357.075-78.451-362.433-85.941-366.911-94.47-369.142-98.741-370.667-103.04-371.473-107.378-372.948-115.334-371.548-121.427-367.278-125.651-363.001-129.88-356.413-131.312-347.487-129.928-342.623-128.988-337.73-127.438-332.809-125.261-327.895-123.093-321.827-120.091-314.616-116.253-308.16-112.57-301.869-107.866-295.747-102.147-289.637-96.44-285.694-92.712-283.924-90.973-283.044-90.109-282.116-89.497-281.143-89.129-280.18-88.77-279.287-88.337-278.466-87.825L-277.785-92.923-278.589-97.261C-280.218-102.111-280.593-106.105-279.73-109.246-278.876-112.398-277.106-116.501-274.427-121.553-272.308-125.679-269.242-128.133-265.234-128.927-261.233-129.721-255.669-129.431-248.549-128.054-234.319-125.303-222.562-119.369-213.288-110.256L-205.794-102.892C-207.902-107.366-210.123-112.206-212.459-117.415L-219.007-132.276C-231.122-158.669-238.604-182.427-241.437-203.537-242.735-212.507-238.787-217.495-229.587-218.501-228.153-218.575-225.939-218.318-222.946-217.74-215.447-216.29-207.835-212.205-200.084-205.477-193.597-199.697-187.662-193.493-182.278-186.871-176.905-180.261-170.375-171.849-162.703-161.65-157.312-153.99-151.163-146.175-144.27-138.217-134.025-125.779-123.651-111.746-113.17-96.126-107.199-87.309-102.881-80.543-100.196-75.84-98.885-73.792-97.649-71.874-96.451-70.023-95.819-71.038-95.1-71.997-94.23-72.856-89.954-77.087-83.365-78.518-74.441-77.135-69.575-76.194-64.684-74.644-59.763-72.467-54.849-70.298-48.781-67.296-41.57-63.459-35.112-59.777-28.821-55.072-22.699-49.353-16.586-43.646-12.648-39.918-10.876-38.178-9.993-37.315-9.07-36.703-8.097-36.335-7.133-35.976-6.241-35.542-5.418-35.032L-4.737-40.13-5.541-44.468C-7.17-49.316-7.547-53.311-6.682-56.453-5.828-59.605-4.06-63.706-1.381-68.76 .739-72.884 3.804-75.339 7.814-76.133 11.813-76.927 17.377-76.637 24.499-75.26 38.729-72.508 50.485-66.575 59.759-57.461L68.176-49.19C65.682-54.366 63.61-58.921 62.015-62.777 60.153-66.977 58.176-70.84 56.07-74.383 51.6-82.918 48.959-89.352 48.154-93.69 47.684-96.224 47.505-98.178 47.609-99.548 43.542-105.915 41.034-111.627 40.095-116.686 39.291-121.025 39.641-124.968 41.155-128.507 42.597-132.411 44.899-135.104 48.05-136.585 51.212-138.066 54.849-138.408 58.964-137.612 66.831-136.091 74.647-130.921 82.429-122.095 85.146-119.136 89.391-114.213 95.188-107.342 100.973-100.471 106.889-94.36 112.944-89.007 116.405-85.903 119.787-82.283 123.083-78.157 126.368-74.042 129.48-69.953 132.398-65.9L143.139-51.796C150.604-42.69 157.466-33.431 163.73-24.026 169.985-14.631 177.066-3.237 184.967 10.145 187.063 13.687 190.458 19.31 195.139 27.013 196.911 29.927 198.707 32.828 200.539 35.705 201.788 37.667 203.055 39.618 204.341 41.556 204.945 42.466 205.555 43.374 206.169 44.278 206.519 44.628 206.748 45.173 207.034 45.581 207.346 46.028 207.675 46.464 208.02 46.885 208.392 47.341 208.883 47.751 209.115 48.298 209.525 49.265 209.317 50.459 208.625 51.246 208.535 51.347 208.436 51.444 208.312 51.497 208.106 51.586 207.87 51.538 207.653 51.479 206.681 51.216 205.774 50.726 204.908 50.22 203.906 49.636 203.196 48.855 202.406 48.025 201.545 47.124 200.672 46.235 199.78 45.364 198.263 43.881 196.695 42.446 195.045 41.111 192.499 39.051 190.81 37.76 189.998 37.26 184.454 32.7 179.634 28.107 175.524 23.481 170.969 18.418 161.972 6.915 148.54-11.016 146.19-13.913 142.36-19.009 137.033-26.312 131.7-33.617 127.237-39.185 123.641-43.018L114.728-53.108 96.338-73.395 86.864-83.592C85.841-85.188 84.013-87.281 81.363-89.884 81.019-87.86 80.807-85.114 80.725-81.642 80.423-81.357 80.507-80.901 80.975-80.286 81.455-79.672 81.723-79.187 81.79-78.821" fill="#3d1f1f"/>
<path transform="matrix(1,0,0,-1,459.388,520.5019)" d="M0 0C-6.864 6.209-14.54 10.648-21.198 16.059-28.127 21.691-34.1 28.192-41.358 33.373-48.349 38.364-56.302 42.169-64.109 47.126-72.949 52.756-80.957 60.265-90.111 65.859-99.327 71.49-109.247 75.988-117.352 82.59-126.409 89.755-132.845 96.765-136.556 103.625-140.038 110.064-140.6 116.444-139.265 123.053-132.521 132.212-123.394 141.978-111.849 152.357L-104.564 159.518-88.964 173.513-81.778 180.132C-77.938 183.309-74.408 186.786-71.179 190.547L-57.368 203.674C-34.3 224.867-14.232 242.512 2.833 256.619 5.414 258.86 8.861 261.879 13.18 265.68 17.489 269.47 21.743 272.907 25.928 275.986 30.101 279.056 34.546 281.576 39.245 283.53 43.426 284.68 47.586 288.622 51.731 295.354 52.61 296.22 53.289 297.919 53.758 300.453L53.181 306.092C52.694 307.386 51.737 308.076 50.311 308.152 49.323 308.656 47.511 308.656 44.895 308.151 42.068 306.558 37.833 304.17 32.19 300.987 26.538 297.804 21.835 294.803 18.06 291.982 15.981 290.534 12.801 287.999 8.526 284.387L-10.644 268.655-20.179 261.06C-49.486 239.356-74.301 218.521-94.609 198.565L-108.22 186.523-114.744 180.555C-114.609 181.276-114.326 181.853-113.88 182.291-107.676 190.459-101.998 200.616-96.849 212.773-96.278 213.928-94.588 217.653-91.799 223.946-89.004 230.237-85.454 236.233-81.144 241.952-77.211 247.589-74.168 254.28-72.004 262.02-70.318 267.222-67.81 272.936-64.49 279.158-61.17 285.371-58.939 289.642-57.782 291.958-52.535 302.728-48.479 311.444-45.619 318.099-42.763 324.746-40.693 331.51-39.418 338.382-37.945 346.33-40.768 349.624-47.88 348.248-52.754 347.306-56.528 344.486-59.201 339.786-61.44 335.514-65.357 329.004-70.948 320.26-76.988 311.07-85.229 297.802-95.669 280.448-96.184 279.646-96.959 278.369-98.009 276.598-99.065 274.826-99.719 273.212-99.986 271.772-100.456 269.238-100.113 267.212-98.948 265.698-98.336 265.114-98.126 264.289-98.327 263.204-98.73 261.035-100.107 258.496-102.444 255.61-104.348 253.151-105.941 250.4-107.224 247.366-108.005 245.123-109.31 242.952-111.139 240.857-115.148 234.855-118.723 228.231-121.866 221.007-125.587 212.616-128.726 206.43-131.265 202.458-137.504 192.183-145.503 176.348-155.246 154.947-160.66 143.057-167.266 132.8-172.745 120.886-176.525 112.669-183.346 101.588-188.76 89.928-192.563 81.737-195.315 76.172-196.915 66.822-197.727 62.074-200.599 56.361-200.947 51.556-201.525 43.568-206.124 36.745-209.154 29.552-212.095 22.572-213.827 14.66-215.68 7.32-221.138-14.307-225.958-30.574-230.151-41.49-230.999-44.096-231.124-46.735-230.536-49.408-230.603-49.771-230.405-50.607-229.916-51.903L-227.87-52.552C-227.258-53.136-226.762-53.383-226.387-53.311-225.639-53.166-224.825-52.666-223.937-51.791L-221.648-48.212-214.076-33.676-176.133 45.292C-174.918 47.961-173.902 49.554-173.079 50.065L-158.816 83.149-158.716 83.69C-156.71 87.083-154.817 91.194-153.037 95.982-151.132 90.453-148.333 84.848-144.276 79.411-138.39 71.394-132.154 64.035-125.122 57.953-117.868 51.678-110.105 45.866-101.906 40.882-93.865 35.995-84 34.154-75.316 29.764-66.868 25.477-59.799 21.045-53.308 16.867-46.04 12.19-39.819 6.956-32.501 2.387-25.953-1.702-19.116-6.092-10.52-10.117-4.317-13.022 3.561-15.68 4.6-6.275 4.776-4.669 1.177-1.096 0 0" fill="#3d1f1f"/>
<path transform="matrix(1,0,0,-1,688.6096,510.44404)" d="M0 0C0-2.01-.254-3.806-.756-5.336-1.254-6.86-1.966-8.149-2.871-9.168-3.772-10.186-4.876-10.967-6.153-11.488-7.43-12.013-8.884-12.278-10.47-12.278H-15.323V12.307H-10.47C-8.886 12.307-7.432 12.042-6.153 11.517-4.876 10.994-3.773 10.209-2.871 9.184-1.966 8.155-1.254 6.86-.756 5.337-.254 3.806 0 2.012 0 0M.785 12.101C-.49 13.518-2.05 14.623-3.85 15.384-5.647 16.142-7.66 16.527-9.84 16.527H-22.749C-23.437 16.527-23.945 16.363-24.255 16.04-24.57 15.716-24.722 15.184-24.722 14.417-24.722 13.65-24.57 13.118-24.255 12.794-23.945 12.471-23.437 12.307-22.749 12.307H-19.925V-12.278H-22.749C-23.437-12.278-23.945-12.443-24.255-12.765-24.57-13.09-24.722-13.621-24.722-14.388-24.722-15.157-24.57-15.688-24.255-16.011-23.945-16.335-23.437-16.498-22.749-16.498H-9.84C-7.662-16.498-5.647-16.119-3.852-15.369-2.052-14.617-.492-13.518 .785-12.1 2.062-10.686 3.066-8.938 3.768-6.905 4.468-4.877 4.824-2.554 4.824 0 4.824 2.554 4.468 4.877 3.768 6.906 3.066 8.939 2.062 10.687 .785 12.101" fill="#3d1f1f"/>
<path transform="matrix(1,0,0,-1,704.5172,510.9652)" d="M0 0C.467 1.819 1.375 3.271 2.704 4.316 4.106 5.418 5.939 5.976 8.157 5.976 10.517 5.976 12.373 5.428 13.673 4.348 14.909 3.321 15.736 1.86 16.135 0ZM-1.837-12.951C-.758-14.115 .592-15.021 2.173-15.644 3.75-16.265 5.578-16.581 7.609-16.581 8.668-16.581 9.74-16.519 10.79-16.401 11.834-16.281 12.861-16.113 13.842-15.904 14.817-15.694 15.758-15.438 16.636-15.142 17.508-14.849 18.315-14.522 19.041-14.169 19.702-13.828 20.121-13.388 20.287-12.858 20.45-12.337 20.393-11.749 20.116-11.117 19.862-10.491 19.514-10.02 19.083-9.718 18.61-9.388 18.027-9.411 17.352-9.79 16.117-10.505 14.629-11.078 12.923-11.49 11.213-11.904 9.424-12.114 7.609-12.114 5.129-12.114 3.2-11.442 1.877-10.117 .59-8.83-.15-6.883-.325-4.329H19.256C19.95-4.329 20.443-4.181 20.758-3.875 21.072-3.572 21.229-3.07 21.229-2.369 21.118-.523 20.762 1.198 20.173 2.746 19.579 4.305 18.727 5.67 17.638 6.805 16.55 7.939 15.198 8.839 13.621 9.479 12.046 10.118 10.207 10.443 8.157 10.443 6.216 10.443 4.41 10.118 2.791 9.48 1.169 8.841-.246 7.919-1.419 6.738-2.587 5.559-3.514 4.122-4.174 2.463-4.829 .808-5.162-1.054-5.162-3.069-5.162-5.154-4.878-7.049-4.314-8.698-3.747-10.361-2.914-11.792-1.837-12.951" fill="#3d1f1f"/>
<path transform="matrix(1,0,0,-1,753.0168,514.7195)" d="M0 0C0-1.315-.206-2.501-.612-3.526-1.017-4.549-1.589-5.418-2.308-6.112-3.029-6.807-3.9-7.347-4.897-7.717-5.897-8.089-6.997-8.278-8.166-8.278-9.368-8.278-10.453-8.072-11.386-7.667-12.315-7.263-13.107-6.69-13.736-5.964-14.373-5.232-14.863-4.352-15.198-3.347-15.534-2.333-15.706-1.206-15.706 0-15.706 1.207-15.534 2.333-15.198 3.348-14.863 4.351-14.373 5.231-13.736 5.964-13.107 6.691-12.315 7.264-11.386 7.668-10.453 8.072-9.368 8.278-8.166 8.278-6.997 8.278-5.897 8.089-4.897 7.718-3.9 7.349-3.031 6.808-2.308 6.114-1.589 5.419-1.017 4.549-.612 3.527-.206 2.502 0 1.316 0 0M6.607-8.003H4.604V22.118C4.604 22.886 4.451 23.418 4.137 23.741 3.827 24.064 3.32 24.228 2.631 24.228H-5.289C-5.978 24.228-6.485 24.064-6.795 23.742-7.109 23.418-7.262 22.886-7.262 22.118-7.262 21.35-7.109 20.82-6.795 20.495-6.485 20.172-5.978 20.008-5.289 20.008H0V8.98C-1.012 10.123-2.166 11.033-3.435 11.69-4.899 12.444-6.583 12.826-8.441 12.826-10.165 12.826-11.782 12.53-13.246 11.946-14.715 11.361-16.002 10.507-17.073 9.409-18.139 8.314-18.993 6.959-19.606 5.379-20.218 3.802-20.527 1.993-20.527 0-20.527-1.993-20.218-3.802-19.606-5.379-18.993-6.958-18.139-8.314-17.073-9.408-16.004-10.506-14.715-11.359-13.246-11.946-11.782-12.529-10.167-12.826-8.441-12.826-6.582-12.826-4.86-12.405-3.322-11.576-1.983-10.853-.775-9.861 .275-8.619V-10.113C.275-10.881 .429-11.413 .742-11.736 1.052-12.059 1.56-12.223 2.248-12.223H6.607C7.293-12.223 7.801-12.059 8.112-11.736 8.426-11.411 8.578-10.88 8.578-10.113 8.578-9.346 8.426-8.815 8.112-8.489 7.801-8.166 7.293-8.003 6.607-8.003" fill="#3d1f1f"/>
<path transform="matrix(1,0,0,-1,791.252,522.7223)" d="M0 0H-8.551V19.487C-8.551 20.255-8.705 20.787-9.018 21.111-9.33 21.433-9.838 21.597-10.524 21.597H-19.843C-20.531 21.597-21.039 21.433-21.351 21.11-21.664 20.785-21.816 20.254-21.816 19.487-21.816 18.721-21.664 18.19-21.351 17.864-21.039 17.54-20.531 17.377-19.843 17.377H-13.155V0H-21.487C-22.176 0-22.683-.163-22.995-.487-23.308-.813-23.46-1.343-23.46-2.11-23.46-2.877-23.308-3.408-22.995-3.734-22.683-4.056-22.176-4.22-21.487-4.22H0C.687-4.22 1.194-4.056 1.506-3.734 1.819-3.41 1.973-2.878 1.973-2.11 1.973-1.342 1.819-.812 1.506-.487 1.194-.163 .687 0 0 0" fill="#3d1f1f"/>
<path transform="matrix(1,0,0,-1,779.8506,496.71174)" d="M0 0C1.108 0 1.839 .152 2.235 .464 2.643 .787 2.85 1.314 2.85 2.027V5.591C2.85 6.305 2.645 6.832 2.235 7.155 1.839 7.466 1.108 7.618 0 7.618-1.11 7.618-1.841 7.466-2.235 7.155-2.643 6.833-2.85 6.306-2.85 5.591V2.027C-2.85 1.312-2.643 .785-2.235 .464-1.841 .152-1.11 0 0 0" fill="#3d1f1f"/>
<path transform="matrix(1,0,0,-1,809.2847,497.69743)" d="M0 0C.444-.364 1.004-.549 1.664-.549 2.3-.549 2.86-.365 3.329 .001L10.924 6.363C11.272 6.667 11.447 7.025 11.447 7.426 11.447 7.801 11.344 8.158 11.136 8.488 10.93 8.82 10.655 9.067 10.318 9.225 9.953 9.394 9.563 9.369 9.19 9.148L1.664 4.859-5.858 9.146C-6.241 9.369-6.622 9.396-6.991 9.225-7.328 9.067-7.603 8.82-7.81 8.488-8.016 8.158-8.12 7.801-8.12 7.426-8.12 7.025-7.945 6.667-7.593 6.36Z" fill="#3d1f1f"/>
<path transform="matrix(1,0,0,-1,801.2742,527.5459)" d="M0 0C.839 0 1.417 .156 1.768 .475 2.121 .796 2.3 1.319 2.3 2.028V2.991C3.343 2.051 4.543 1.329 5.876 .839 7.384 .283 9.17 0 11.182 0 12.896 0 14.444 .202 15.786 .6 17.138 1 18.291 1.577 19.216 2.316 20.145 3.056 20.858 3.958 21.341 4.995 21.82 6.028 22.062 7.187 22.062 8.441 22.062 9.343 21.943 10.149 21.706 10.838 21.468 11.53 21.131 12.146 20.704 12.667 20.277 13.188 19.766 13.639 19.179 14.008 18.602 14.371 17.96 14.686 17.269 14.949 16.273 15.318 15.177 15.594 14.013 15.769 12.871 15.942 11.713 16.09 10.576 16.21 9.445 16.329 8.366 16.447 7.345 16.566 6.343 16.682 5.456 16.867 4.706 17.117 4.049 17.325 3.531 17.602 3.168 17.94 2.825 18.26 2.658 18.676 2.658 19.213 2.658 20.283 3.108 21.085 4.035 21.662 4.987 22.256 6.339 22.556 8.057 22.556 9.101 22.556 10.095 22.493 11.013 22.368 11.919 22.243 12.761 22.027 13.515 21.726 14.261 21.427 14.929 21.018 15.5 20.509 16.069 20 16.563 19.358 16.967 18.602 17.269 18.044 17.785 17.761 18.5 17.761 19.339 17.761 19.918 17.915 20.268 18.236 20.622 18.556 20.8 19.079 20.8 19.789V24.996C20.8 25.705 20.622 26.228 20.268 26.548 19.918 26.868 19.339 27.024 18.5 27.024 17.662 27.024 17.083 26.868 16.731 26.549 16.377 26.228 16.198 25.705 16.198 24.996V24.295C15.221 25.082 14.077 25.721 12.788 26.199 11.315 26.746 9.63 27.024 7.784 27.024 6.378 27.024 5.06 26.855 3.868 26.521 2.666 26.186 1.606 25.685 .717 25.03-.179 24.37-.891 23.545-1.396 22.576-1.908 21.604-2.166 20.473-2.166 19.213-2.166 18.388-2.056 17.642-1.837 16.996-1.619 16.352-1.312 15.773-.921 15.279-.531 14.784-.065 14.352 .464 13.994 .989 13.636 1.579 13.332 2.214 13.091 3.21 12.703 4.31 12.403 5.479 12.201 6.637 11.999 7.818 11.832 8.989 11.705 10.159 11.576 11.271 11.449 12.332 11.322 13.371 11.195 14.296 10.996 15.077 10.73 15.752 10.505 16.294 10.205 16.686 9.838 17.058 9.49 17.238 9.034 17.238 8.441 17.238 7.255 16.735 6.321 15.698 5.587 14.65 4.844 13.038 4.467 10.907 4.467 8.418 4.467 6.401 4.858 4.908 5.631 3.437 6.393 2.36 7.645 1.71 9.351 1.548 9.772 1.341 10.092 1.089 10.303 .823 10.522 .458 10.634 0 10.634-.839 10.634-1.417 10.478-1.769 10.159-2.123 9.838-2.302 9.315-2.302 8.607V2.028C-2.302 1.319-2.123 .796-1.769 .475-1.417 .156-.839 0 0 0" fill="#3d1f1f"/>
<path transform="matrix(1,0,0,-1,854.4475,519.5489)" d="M0 0C-.496 .109-1.014-.048-1.544-.456-2.831-1.439-4.264-2.192-5.803-2.693-7.341-3.194-8.957-3.448-10.603-3.448-11.899-3.448-13.094-3.223-14.155-2.781-15.215-2.341-16.131-1.714-16.879-.921-17.629-.129-18.216 .826-18.623 1.916-19.031 3.004-19.239 4.216-19.239 5.515-19.239 6.81-19.014 8.02-18.569 9.109-18.129 10.196-17.51 11.151-16.731 11.948-15.956 12.742-15.011 13.369-13.925 13.811-12.834 14.254-11.624 14.478-10.33 14.478-9.099 14.478-8.007 14.338-7.085 14.063-6.166 13.789-5.387 13.406-4.766 12.926-4.15 12.448-3.681 11.873-3.372 11.221-3.06 10.563-2.902 9.834-2.902 9.051-2.902 8.343-2.723 7.821-2.369 7.498-2.018 7.178-1.439 7.023-.6 7.023 .239 7.023 .817 7.178 1.169 7.499 1.523 7.821 1.702 8.343 1.702 9.051V16.999C1.702 17.706 1.523 18.229 1.169 18.552 .817 18.871 .239 19.027-.6 19.027-1.439 19.027-2.018 18.871-2.369 18.551-2.723 18.229-2.902 17.706-2.902 16.999V15.991C-3.77 16.885-4.804 17.597-5.983 18.116-7.36 18.719-8.914 19.027-10.603 19.027-12.599 19.027-14.444 18.684-16.084 18.008-17.725 17.33-19.156 16.375-20.333 15.171-21.51 13.963-22.437 12.521-23.083 10.882-23.732 9.245-24.06 7.439-24.06 5.515-24.06 3.592-23.741 1.787-23.112 .15-22.483-1.491-21.57-2.933-20.4-4.139-19.231-5.347-17.802-6.302-16.152-6.978-14.504-7.654-12.636-7.997-10.603-7.997-8.489-7.997-6.408-7.68-4.42-7.053-2.429-6.428-.662-5.549 .833-4.441 1.421-4.016 1.744-3.495 1.798-2.893 1.846-2.311 1.7-1.743 1.366-1.21 .94-.504 .494-.108 0 0" fill="#3d1f1f"/>
<path transform="matrix(1,0,0,-1,842.5923,497.69743)" d="M0 0C.442-.364 1.002-.549 1.662-.549 2.298-.549 2.858-.365 3.327 .001L10.922 6.363C11.271 6.667 11.446 7.025 11.446 7.426 11.446 7.801 11.342 8.158 11.134 8.488 10.928 8.82 10.653 9.067 10.317 9.225 9.947 9.397 9.566 9.37 9.188 9.148L1.662 4.859-5.86 9.146C-6.239 9.367-6.63 9.396-6.993 9.225-7.33 9.067-7.605 8.819-7.81 8.488-8.016 8.156-8.122 7.799-8.122 7.426-8.122 7.025-7.947 6.667-7.595 6.359Z" fill="#3d1f1f"/>
<path transform="matrix(1,0,0,-1,886.2088,522.7223)" d="M0 0H-8.551V19.487C-8.551 20.255-8.705 20.787-9.018 21.111-9.33 21.433-9.838 21.597-10.524 21.597H-19.843C-20.531 21.597-21.039 21.433-21.35 21.11-21.664 20.785-21.816 20.254-21.816 19.487-21.816 18.721-21.664 18.19-21.35 17.864-21.039 17.54-20.531 17.377-19.843 17.377H-13.155V0H-21.487C-22.176 0-22.683-.163-22.995-.487-23.308-.813-23.46-1.343-23.46-2.11-23.46-2.877-23.308-3.408-22.995-3.734-22.683-4.056-22.176-4.22-21.487-4.22H0C.687-4.22 1.194-4.056 1.506-3.734 1.819-3.41 1.973-2.878 1.973-2.11 1.973-1.342 1.819-.812 1.506-.487 1.194-.163 .687 0 0 0" fill="#3d1f1f"/>
<path transform="matrix(1,0,0,-1,874.8076,496.71174)" d="M0 0C1.108 0 1.839 .152 2.235 .464 2.643 .787 2.85 1.314 2.85 2.027V5.591C2.85 6.305 2.645 6.832 2.235 7.155 1.839 7.466 1.108 7.618 0 7.618-1.11 7.618-1.841 7.466-2.235 7.155-2.643 6.833-2.85 6.306-2.85 5.591V2.027C-2.85 1.312-2.643 .785-2.235 .464-1.841 .152-1.11 0 0 0" fill="#3d1f1f"/>
<path transform="matrix(1,0,0,-1,921.8398,522.7223)" d="M0 0H-2.002V13.019C-2.002 14.411-2.196 15.687-2.577 16.812-2.958 17.94-3.52 18.916-4.245 19.708-4.968 20.498-5.86 21.118-6.895 21.551-7.926 21.981-9.101 22.201-10.388 22.201-12.307 22.201-14.111 21.695-15.75 20.698-17.185 19.825-18.475 18.585-19.596 17.004V19.487C-19.596 20.255-19.748 20.787-20.064 21.111-20.375 21.433-20.883 21.597-21.57 21.597H-26.476C-27.163 21.597-27.67 21.433-27.982 21.111-28.296 20.787-28.449 20.255-28.449 19.487-28.449 18.719-28.297 18.189-27.982 17.864-27.67 17.54-27.163 17.377-26.476 17.377H-23.926V0H-25.928C-26.615 0-27.122-.163-27.434-.487-27.747-.812-27.901-1.342-27.901-2.11-27.901-2.878-27.747-3.41-27.434-3.734-27.122-4.056-26.615-4.22-25.928-4.22H-17.048C-16.36-4.22-15.852-4.056-15.542-3.734-15.229-3.41-15.075-2.878-15.075-2.11-15.075-1.342-15.229-.812-15.542-.487-15.852-.164-16.36 0-17.048 0H-19.323V7.592C-19.323 9.052-19.089 10.415-18.625 11.644-18.164 12.873-17.533 13.944-16.754 14.83-15.975 15.713-15.061 16.413-14.034 16.908-13.013 17.401-11.924 17.651-10.799 17.651-10.09 17.651-9.465 17.529-8.941 17.29-8.422 17.052-7.987 16.712-7.649 16.279-7.307 15.842-7.043 15.308-6.87 14.692-6.695 14.066-6.605 13.365-6.605 12.607V0H-8.88C-9.568 0-10.076-.164-10.386-.487-10.699-.812-10.853-1.342-10.853-2.11-10.853-2.878-10.699-3.41-10.386-3.733-10.076-4.056-9.568-4.22-8.88-4.22H0C.687-4.22 1.194-4.056 1.506-3.734 1.819-3.41 1.973-2.878 1.973-2.11 1.973-1.342 1.819-.812 1.506-.487 1.194-.163 .687 0 0 0" fill="#3d1f1f"/>
<path transform="matrix(1,0,0,-1,948.0696,516.10336)" d="M0 0V-2.709C-1.31-4.038-2.766-5.109-4.329-5.892-5.914-6.684-7.685-7.085-9.593-7.085-11.19-7.085-12.442-6.731-13.317-6.029-14.186-5.332-14.609-4.377-14.609-3.111-14.609-2.337-14.45-1.673-14.136-1.14-13.819-.601-13.375-.161-12.811 .172-12.236 .513-11.538 .765-10.736 .924-9.924 1.084-9.024 1.166-8.057 1.166-6.649 1.166-5.224 1.065-3.816 .866-2.475 .677-1.192 .386 0 0M8.632-7.106C8.322-6.783 7.814-6.619 7.126-6.619H6.166C5.495-6.619 4.604-6.421 4.604-4.701V6.207C4.604 9.28 3.762 11.636 2.102 13.211 .444 14.783-2.079 15.582-5.399 15.582-6.335 15.582-7.299 15.52-8.266 15.401-9.232 15.282-10.192 15.095-11.122 14.847-12.055 14.597-12.967 14.27-13.832 13.874-14.7 13.477-15.508 13.002-16.234 12.464-16.704 12.116-16.99 11.682-17.085 11.172-17.179 10.66-17.004 10.085-16.563 9.465-16.127 8.848-15.654 8.483-15.152 8.379-14.646 8.273-14.144 8.398-13.671 8.748-12.551 9.548-11.245 10.148-9.79 10.533-8.33 10.919-6.853 11.114-5.399 11.114-3.41 11.114-1.998 10.719-1.2 9.938-.404 9.16 0 7.904 0 6.207V4.223C-1.204 4.628-2.462 4.944-3.739 5.163-6.566 5.644-9.715 5.672-12.403 5.05-13.769 4.733-14.986 4.228-16.017 3.549-17.062 2.863-17.898 1.953-18.51 .845-19.121-.264-19.431-1.622-19.431-3.193-19.431-4.502-19.189-5.681-18.71-6.696-18.231-7.711-17.548-8.584-16.683-9.29-15.823-9.992-14.79-10.532-13.613-10.896-12.444-11.259-11.145-11.443-9.757-11.443-7.705-11.443-5.772-11.062-4.014-10.312-2.381-9.616-.86-8.681 .515-7.531 .654-8.003 .85-8.424 1.1-8.787 1.417-9.249 1.798-9.639 2.229-9.944 2.664-10.252 3.154-10.481 3.691-10.625 4.222-10.768 4.787-10.839 5.372-10.839H7.126C7.814-10.839 8.322-10.675 8.632-10.353 8.947-10.029 9.099-9.497 9.099-8.729 9.099-7.961 8.947-7.431 8.632-7.106" fill="#3d1f1f"/>
<path transform="matrix(1,0,0,-1,687.7325,567.2091)" d="M0 0C0-1.293-.219-2.503-.654-3.596-1.089-4.684-1.702-5.64-2.477-6.433-3.256-7.229-4.206-7.855-5.301-8.296-6.399-8.738-7.63-8.964-8.963-8.964-10.295-8.964-11.528-8.738-12.626-8.296-13.721-7.854-14.671-7.228-15.446-6.433-16.227-5.636-16.84-4.682-17.271-3.596-17.706-2.507-17.925-1.297-17.925 0-17.925 1.297-17.706 2.507-17.271 3.596-16.84 4.681-16.227 5.636-15.446 6.432-14.671 7.227-13.721 7.854-12.626 8.295-11.528 8.738-10.295 8.963-8.963 8.963-7.63 8.963-6.399 8.738-5.301 8.295-4.206 7.854-3.256 7.228-2.479 6.432-1.702 5.639-1.089 4.684-.654 3.596-.219 2.503 0 1.293 0 0M.883 9.7C-.34 10.896-1.812 11.841-3.487 12.508-5.162 13.174-7.005 13.512-8.963 13.512-10.922 13.512-12.765 13.174-14.438 12.508-16.117 11.841-17.587 10.896-18.81 9.7-20.033 8.506-21.004 7.069-21.702 5.427-22.397 3.787-22.749 1.961-22.749 0-22.749-1.961-22.397-3.787-21.702-5.427-21.004-7.069-20.033-8.506-18.81-9.7-17.587-10.896-16.117-11.841-14.438-12.508-12.765-13.174-10.922-13.512-8.963-13.512-7.005-13.512-5.162-13.174-3.487-12.508-1.812-11.841-.34-10.896 .883-9.7 2.108-8.504 3.081-7.065 3.775-5.427 4.472-3.784 4.824-1.958 4.824 0 4.824 1.958 4.472 3.784 3.775 5.427 3.081 7.065 2.108 8.504 .883 9.7" fill="#3d1f1f"/>
<path transform="matrix(1,0,0,-1,724.6155,575.8976)" d="M0 0H-1.477L-10.455 10.5-2.65 17.377H-1.125C-.437 17.377 .071 17.54 .381 17.864 .696 18.189 .848 18.719 .848 19.487 .848 20.255 .694 20.787 .381 21.11 .071 21.433-.437 21.597-1.125 21.597H-10.278C-10.967 21.597-11.474 21.433-11.786 21.11-12.099 20.785-12.251 20.254-12.251 19.487-12.251 18.721-12.099 18.19-11.786 17.864-11.474 17.54-10.967 17.377-10.278 17.377H-8.986L-18.529 8.96V30.121C-18.529 30.889-18.683 31.421-18.996 31.745-19.308 32.067-19.816 32.231-20.502 32.231H-26.476C-27.174 32.231-27.667 32.072-27.984 31.744-28.297 31.419-28.449 30.888-28.449 30.121-28.449 29.354-28.297 28.823-27.984 28.497-27.667 28.171-27.174 28.011-26.476 28.011H-23.133V0H-25.928C-26.626 0-27.118-.16-27.436-.487-27.749-.813-27.901-1.343-27.901-2.11-27.901-2.877-27.749-3.408-27.436-3.734-27.118-4.061-26.626-4.22-25.928-4.22H-17.048C-16.361-4.22-15.854-4.056-15.542-3.733-15.229-3.408-15.077-2.877-15.077-2.11-15.077-1.343-15.229-.813-15.542-.487-15.854-.163-16.361 0-17.048 0H-18.529V3.424L-13.813 7.57-7.437 0H-9.155C-9.843 0-10.351-.164-10.661-.487-10.976-.812-11.128-1.342-11.128-2.11-11.128-2.878-10.976-3.41-10.661-3.733-10.351-4.056-9.843-4.22-9.155-4.22H0C.687-4.22 1.194-4.056 1.506-3.733 1.819-3.408 1.971-2.877 1.971-2.11 1.971-1.343 1.819-.813 1.506-.487 1.194-.163 .687 0 0 0" fill="#3d1f1f"/>
<path transform="matrix(1,0,0,-1,757.8597,575.8976)" d="M0 0H-2.002V19.487C-2.002 20.254-2.154 20.785-2.468 21.111-2.779 21.433-3.287 21.597-3.975 21.597H-10.251C-10.938 21.597-11.445 21.433-11.757 21.111-12.071 20.787-12.224 20.255-12.224 19.487-12.224 18.719-12.073 18.189-11.757 17.864-11.445 17.54-10.938 17.377-10.251 17.377H-6.605V9.785C-6.605 8.325-6.839 6.962-7.303 5.733-7.766 4.504-8.395 3.433-9.174 2.547-9.955 1.662-10.87 .962-11.894 .468-12.915-.025-14.003-.275-15.131-.275-15.84-.275-16.465-.153-16.987 .087-17.504 .325-17.94 .665-18.279 1.098-18.625 1.537-18.887 2.071-19.06 2.685-19.235 3.306-19.323 4.007-19.323 4.77V19.487C-19.323 20.255-19.475 20.787-19.791 21.111-20.102 21.433-20.61 21.597-21.297 21.597H-25.928C-26.616 21.597-27.124 21.433-27.434 21.111-27.749 20.787-27.901 20.255-27.901 19.487-27.901 18.719-27.749 18.189-27.434 17.864-27.124 17.54-26.616 17.377-25.928 17.377H-23.928V4.358C-23.928 2.971-23.733 1.694-23.353 .565-22.968-.569-22.406-1.543-21.683-2.331-20.958-3.122-20.068-3.743-19.033-4.174-18.004-4.604-16.829-4.824-15.54-4.824-13.623-4.824-11.819-4.318-10.176-3.321-8.743-2.448-7.451-1.208-6.331 .373V-2.138C-6.331-2.908-6.178-3.435-5.862-3.75-5.553-4.062-5.047-4.22-4.358-4.22H0C.687-4.22 1.194-4.056 1.506-3.734 1.819-3.41 1.973-2.878 1.973-2.11 1.973-1.342 1.819-.812 1.506-.487 1.194-.163 .687 0 0 0" fill="#3d1f1f"/>
<path transform="matrix(1,0,0,-1,789.5556,568.05447)" d="M0 0C-.427 .521-.939 .972-1.525 1.341-2.102 1.704-2.745 2.019-3.435 2.282-4.431 2.651-5.528 2.927-6.691 3.102-7.834 3.275-8.991 3.423-10.128 3.543-11.259 3.662-12.338 3.78-13.359 3.899-14.361 4.015-15.248 4.2-15.998 4.451-16.656 4.658-17.173 4.935-17.537 5.274-17.879 5.593-18.046 6.009-18.046 6.546-18.046 7.616-17.596 8.418-16.669 8.995-15.717 9.59-14.365 9.89-12.648 9.89-11.603 9.89-10.609 9.826-9.691 9.701-8.786 9.576-7.943 9.36-7.189 9.059-6.443 8.761-5.776 8.351-5.204 7.842-4.635 7.334-4.141 6.691-3.737 5.935-3.435 5.378-2.92 5.094-2.204 5.094-1.366 5.094-.787 5.25-.437 5.569-.083 5.889 .096 6.412 .096 7.122V12.329C.096 13.038-.083 13.561-.437 13.881-.787 14.202-1.366 14.357-2.204 14.357-3.043 14.357-3.622 14.202-3.974 13.882-4.327 13.561-4.506 13.038-4.506 12.329V11.628C-5.483 12.415-6.628 13.054-7.916 13.532-9.39 14.079-11.074 14.357-12.921 14.357-14.327 14.357-15.644 14.188-16.837 13.854-18.039 13.519-19.098 13.018-19.987 12.363-20.883 11.703-21.595 10.878-22.101 9.909-22.612 8.937-22.87 7.806-22.87 6.546-22.87 5.721-22.76 4.976-22.541 4.329-22.324 3.685-22.016 3.106-21.626 2.612-21.235 2.118-20.77 1.685-20.241 1.327-19.716 .969-19.125 .665-18.491 .424-17.494 .037-16.394-.263-15.225-.465-14.067-.667-12.886-.835-11.715-.962-10.545-1.091-9.434-1.217-8.372-1.344-7.334-1.471-6.408-1.67-5.628-1.937-4.953-2.162-4.41-2.462-4.018-2.829-3.647-3.176-3.466-3.633-3.466-4.225-3.466-5.412-3.97-6.346-5.006-7.08-6.055-7.824-7.666-8.2-9.797-8.2-12.286-8.2-14.304-7.809-15.796-7.035-17.267-6.274-18.344-5.022-18.994-3.316-19.156-2.895-19.364-2.574-19.616-2.364-19.881-2.144-20.247-2.033-20.704-2.033-21.543-2.033-22.122-2.189-22.474-2.508-22.828-2.829-23.006-3.351-23.006-4.06V-10.639C-23.006-11.347-22.828-11.871-22.474-12.192-22.122-12.511-21.543-12.667-20.704-12.667-19.866-12.667-19.287-12.511-18.937-12.192-18.583-11.871-18.404-11.347-18.404-10.639V-9.676C-17.362-10.616-16.161-11.338-14.829-11.828-13.321-12.384-11.534-12.667-9.522-12.667-7.809-12.667-6.26-12.465-4.918-12.067-3.566-11.667-2.414-11.09-1.489-10.351-.56-9.611 .154-8.709 .637-7.672 1.115-6.639 1.358-5.479 1.358-4.225 1.358-3.323 1.239-2.518 1.002-1.829 .764-1.137 .427-.521 0 0" fill="#3d1f1f"/>
<path transform="matrix(1,0,0,-1,817.1568,569.2786)" d="M0 0V-2.709C-1.31-4.038-2.766-5.109-4.329-5.892-5.914-6.684-7.685-7.085-9.593-7.085-11.19-7.085-12.442-6.731-13.317-6.029-14.186-5.332-14.609-4.377-14.609-3.111-14.609-2.337-14.45-1.673-14.136-1.14-13.819-.601-13.375-.161-12.811 .172-12.236 .513-11.538 .765-10.736 .924-9.924 1.084-9.024 1.166-8.057 1.166-6.649 1.166-5.224 1.065-3.816 .866-2.475 .677-1.192 .386 0 0M7.126-6.619H6.166C5.495-6.619 4.604-6.421 4.604-4.701V6.207C4.604 9.28 3.762 11.636 2.102 13.211 .444 14.783-2.079 15.582-5.399 15.582-6.335 15.582-7.299 15.52-8.266 15.401-9.232 15.282-10.192 15.095-11.122 14.847-12.055 14.597-12.967 14.27-13.832 13.874-14.7 13.477-15.508 13.002-16.235 12.464-16.704 12.116-16.99 11.682-17.085 11.172-17.179 10.66-17.004 10.085-16.563 9.465-16.127 8.848-15.654 8.483-15.152 8.379-14.642 8.273-14.146 8.398-13.671 8.748-12.551 9.548-11.246 10.148-9.79 10.533-8.33 10.92-6.853 11.114-5.399 11.114-3.41 11.114-1.998 10.719-1.2 9.938-.404 9.16 0 7.904 0 6.207V4.223C-1.204 4.628-2.462 4.944-3.739 5.163-6.566 5.644-9.715 5.672-12.403 5.05-13.769 4.733-14.986 4.228-16.017 3.549-17.062 2.863-17.898 1.953-18.51 .845-19.121-.264-19.431-1.622-19.431-3.193-19.431-4.502-19.189-5.681-18.71-6.696-18.231-7.711-17.548-8.584-16.683-9.29-15.823-9.992-14.79-10.532-13.613-10.896-12.444-11.259-11.146-11.443-9.757-11.443-7.705-11.443-5.772-11.062-4.014-10.312-2.381-9.616-.86-8.681 .515-7.531 .654-8.003 .85-8.424 1.1-8.787 1.417-9.249 1.798-9.639 2.229-9.944 2.664-10.252 3.154-10.481 3.691-10.625 4.222-10.768 4.787-10.839 5.372-10.839H7.126C7.814-10.839 8.322-10.675 8.632-10.353 8.947-10.029 9.099-9.497 9.099-8.729 9.099-7.961 8.947-7.431 8.632-7.106 8.322-6.783 7.814-6.619 7.126-6.619" fill="#3d1f1f"/>
<path transform="matrix(1,0,0,-1,842.3942,573.5742)" d="M0 0C-.379 .379-.825 .683-1.323 .902-2.335 1.35-3.572 1.348-4.583 .902-5.083 .682-5.528 .377-5.904 0-6.283-.377-6.587-.823-6.808-1.325-7.033-1.833-7.147-2.381-7.147-2.954-7.147-3.526-7.033-4.075-6.808-4.583-6.587-5.085-6.283-5.531-5.906-5.906-5.528-6.284-5.083-6.589-4.583-6.81-4.079-7.033-3.529-7.147-2.952-7.147-2.375-7.147-1.827-7.033-1.323-6.81-.825-6.589-.379-6.285 .002-5.906 .377-5.531 .681-5.085 .904-4.583 1.127-4.077 1.241-3.529 1.241-2.954 1.241-2.379 1.127-1.831 .904-1.324 .681-.822 .377-.377 0 0" fill="#3d1f1f"/>
</g>
</svg>
