<svg xmlns="http://www.w3.org/2000/svg" xmlns:xlink="http://www.w3.org/1999/xlink" xmlns:inkscape="http://www.inkscape.org/namespaces/inkscape" version="1.1" width="1200" height="708.661" viewBox="0 0 1200 708.661">
<defs>
<clipPath id="clip_1">
<path transform="matrix(1,0,0,-1,0,708.661)" d="M0 708.661H1200V0H0Z"/>
</clipPath>
</defs>
<g clip-path="url(#clip_1)">
<path transform="matrix(1,0,0,-1,786.5417,293.0613)" d="M0 0C-.163-.869-1.561-2.593-4.197-5.18-5.777-6.733-7.675-8.25-9.886-9.712-12.1-11.185-13.918-12.266-15.337-12.951-31.362-27.285-43.395-37.52-51.424-43.646-54.877-45.982-58.87-48.313-63.393-50.641-67.927-52.982-71.167-54.749-73.105-55.952L-80.725-58.674C-80.564-57.815-80.44-56.542-80.339-54.854-80.249-53.179-79.852-51.64-79.163-50.258-66.492-30.75-51.066-16.114-32.864-6.354-31.445-5.669-29.248-4.825-26.254-3.827-23.271-2.841-20.982-1.558-19.401-.005-16.852 2.146-14.457 3.447-12.214 3.881-10.873 4.141-8.132 3.832-3.977 2.978-1.091 2.288 .239 1.295 0 0M-325.952-63.022C-326.113-63.891-327.514-65.616-330.147-68.203-331.727-69.756-333.623-71.274-335.834-72.735-338.05-74.207-339.866-75.289-341.289-75.973-357.312-90.307-369.345-100.543-377.372-106.669-380.827-109.004-384.818-111.336-389.343-113.664-393.877-116.004-397.115-117.772-399.055-118.975L-406.673-121.695C-406.512-120.837-406.39-119.565-406.289-117.877-406.2-116.202-405.805-114.662-405.111-113.28-392.44-93.774-377.014-79.136-358.816-69.376-357.395-68.691-355.198-67.848-352.204-66.849-349.219-65.863-346.933-64.581-345.348-63.028-342.8-60.876-340.405-59.575-338.164-59.141-336.821-58.882-334.082-59.191-329.924-60.045-327.041-60.735-325.711-61.727-325.952-63.022M97.636-94.093C101.069-87.188 105.645-78.813 111.348-68.973 128.574-36.521 138.525-17.744 141.199-12.644L147.265-.861 160.067 22.836 166.135 34.621C166.817 36 167.29 37.963 167.552 40.512 167.802 43.057 168.197 44.586 168.727 45.109 170.959 45.541 172.757 46.511 174.118 48.023 175.468 49.531 176.573 51.405 177.427 53.656 178.265 55.897 179.259 57.755 180.398 59.223 185.545 66.041 191.019 75.837 196.846 88.619 201.729 98.71 205.393 105.661 207.827 109.467 228.917 141.836 244.941 170.106 255.895 194.283 257.506 198.34 258.085 202.607 257.626 207.102 257.167 211.586 255.713 214.221 253.27 214.997 249.925 215.599 246.293 214.585 242.36 211.952 238.416 209.317 234.71 205.577 231.229 200.749 209.526 167.422 180.827 119.636 145.141 57.4L132.7 35.644C128.967 29.169 125.401 22.94 121.996 16.945 110.898 7.324 102.474-1.042 96.782-8.124 91.798-14.081 86.616-19.356 81.241-23.925 75.867-28.504 68.182-34.466 58.202-41.798L41.646-54.363C41.115-54.884 39.752-55.256 37.559-55.465 35.357-55.685 34.115-55.409 33.837-54.625 33.546-53.852 32.765-52.237 31.505-49.77 30.23-47.313 29.881-44.573 30.444-41.548 30.843-39.393 31.955-36.886 33.775-34.037 35.146-31.276 36-29.034 36.319-27.305L36.68-25.363C37.267-19.846 39.396-13.603 43.06-6.652 46.713 .295 49.232 5.15 50.614 7.915L61.765 33.165C63.905 37.734 63.981 41.082 62.008 43.198 60.025 45.311 57.079 47.443 53.174 49.605 51.622 50.553 49.73 50.81 47.498 50.379 43.023 49.514 38.298 46.103 33.314 40.147 28.846 34.701 24.385 31.555 19.919 30.692 17.236 30.173 13.851 30.551 9.785 31.853 5.793 33.579 .216 33.748-6.929 32.366-12.694 31.251-18.608 29.071-24.162 27.124-30.335 24.96-36.318 22.26-42.028 19.069-50.897 14.11-58.282 7.754-66.042 1.31-75.313-6.391-84.446-14.29-92.849-22.944-100.242-30.562-106.588-39.424-111.906-49.497-122.412-62.264-135.059-78.071-149.91-97.018-161.624-111.356-168.05-119.249-169.182-120.716-199.013-156.034-221.205-183.829-235.741-204.116-236.871-205.583-238.494-207.359-240.604-209.424-242.709-211.501-244.557-213.31-246.139-214.864L-245.632-201.658C-245.551-201.233-244.599-199.587-242.776-196.738-238.443-189.658-234.379-181.695-230.587-172.848-226.791-163.999-224.429-158.237-223.499-155.562-213.209-130.273-198.855-101.703-180.437-69.839L-172.667-55.854C-170.686-52.145-166.556-44.373-160.26-32.546-153.974-20.72-148.565-9.589-144.039 .862-143.119 3.537-141.61 6.423-139.519 9.538-137.439 12.641-136.052 14.89-135.359 16.273-129.003 24.99-124.963 32.843-123.227 39.839-121.987 44.232-119.22 48.103-114.934 51.429-110.659 54.752-105.872 56.712-100.584 57.323-93.958 58.187-86.595 60.127-78.484 63.157-70.388 66.177-62.555 69.456-54.997 73.005-43.186 78.614-32.235 83.024-22.151 86.222-21.635 86.731-21.063 87.466-20.45 88.423-19.851 89.367-19.499 90.059-19.419 90.494-20.161 91.18-20.934 91.654-21.742 91.917-22.564 92.169-23.554 92.602-24.734 93.212-42.142 92.343-58.33 91.085-73.286 89.442-74.549 89.606-77.483 88.942-82.068 87.431-86.662 85.919-90.294 84.904-92.976 84.386-96.11 83.779-97.593 83.902-97.43 84.774-96.95 87.362-94.092 93.533-88.825 103.29-83.567 113.044-79.276 119.901-75.949 123.88-75.352 124.825-74.661 126.207-73.887 128.022-73.13 129.826-72.661 131.166-72.498 132.036-71.047 135.223-70.662 139.043-71.344 143.495-72.032 147.934-73.371 150.593-75.361 151.456-78.626 152.483-82.552 151.626-87.158 148.863-91.773 146.098-95.552 142.559-98.504 138.243-99.808 135.904-101.893 132.174-104.786 127.043-107.681 121.9-110.349 117.433-112.769 113.639-114.429 111.65-118.761 105.196-125.739 94.28-132.725 83.352-137.113 77.724-138.897 77.38-152.922 73.829-170.821 66.838-192.582 56.39-198.868 52.677-203.575 48.227-206.698 43.049-207.377 41.669-207.184 39.834-206.101 37.548-205.01 35.261-203.655 33.856-202.032 33.341-201.21 33.08-199.736 32.321-197.603 31.076-195.461 29.823-193.053 29.458-190.369 29.977-188.137 30.408-185.557 31.533-182.629 33.346-175.735 38.006-169.155 40.945-162.891 42.157-159.769 42.76-157.645 42.547-156.545 41.511-155.443 40.477-155.62 38.979-157.05 37.045-158.492 35.098-160.706 32.485-163.674 29.211-166.659 25.922-168.346 23.206-168.746 21.051L-168.868 20.404-169.896 18.332-176.566 3.312C-183.922-13.089-190.167-24.704-195.312-31.521-199.138-36.464-202.645-41.895-205.866-47.752-216.016-56.668-223.808-64.48-229.165-71.147-234.152-77.104-239.334-82.378-244.709-86.948-250.084-91.526-257.768-97.49-267.748-104.82L-284.304-117.385C-284.835-117.906-286.196-118.278-288.389-118.487-290.593-118.707-291.833-118.431-292.113-117.647-292.404-116.874-293.185-115.26-294.445-112.792-295.717-110.336-296.069-107.596-295.506-104.571-295.107-102.417-293.993-99.909-292.172-97.06-290.802-94.299-289.95-92.057-289.631-90.329L-289.27-88.386C-288.68-82.869-286.554-76.626-282.888-69.676-279.235-62.728-276.719-57.872-275.336-55.108L-264.185-29.859C-262.045-25.29-261.967-21.94-263.942-19.824-265.923-17.711-268.871-15.579-272.776-13.417-274.326-12.47-276.22-12.212-278.452-12.644-282.927-13.509-287.652-16.919-292.634-22.875-297.102-28.323-301.565-31.468-306.031-32.331-308.712-32.85-312.096-32.471-316.163-31.169-320.155-29.444-325.732-29.275-332.882-30.656-335.563-31.175-337.616-31.786-339.037-32.471-340.908-33.253-344.244-34.415-349.061-35.97-353.878-37.525-358.867-39.427-364.021-41.672-369.187-43.918-373.793-46.682-377.845-49.962-381.459-53.158-387.327-58.036-395.436-64.598-403.552-71.16-411.34-78.284-418.8-85.967-426.257-93.651-432.653-102.592-437.998-112.774-440.661-117.872-442.482-123.003-443.444-128.183-445.205-137.68-443.534-144.953-438.437-149.995-433.331-155.044-425.467-156.753-414.812-155.101-409.005-153.978-403.164-152.128-397.289-149.53-391.423-146.941-384.179-143.358-375.572-138.776-367.865-134.38-360.355-128.765-353.047-121.938-345.752-115.125-341.046-110.675-338.934-108.598-337.882-107.568-336.775-106.836-335.614-106.398-334.463-105.968-333.398-105.452-332.418-104.841L-331.605-110.926-332.565-116.105C-334.509-121.894-334.957-126.663-333.926-130.412-332.907-134.175-330.795-139.072-327.596-145.104-325.066-150.028-321.406-152.958-316.622-153.906-311.846-154.854-305.204-154.508-296.705-152.864-279.717-149.579-265.682-142.497-254.611-131.617L-245.666-122.827C-248.183-128.168-250.833-133.945-253.622-140.164L-261.439-157.903C-275.901-189.41-284.832-217.772-288.214-242.972-289.764-253.679-285.051-259.633-274.069-260.834-272.356-260.923-269.714-260.616-266.141-259.926-257.189-258.195-248.102-253.319-238.85-245.287-231.105-238.387-224.02-230.982-217.594-223.077-211.179-215.186-203.384-205.144-194.226-192.969-187.791-183.824-180.451-174.496-172.222-164.995-159.992-150.148-147.607-133.397-135.097-114.75-127.968-104.225-122.814-96.148-119.608-90.534-118.044-88.089-116.569-85.8-115.138-83.59-114.384-84.801-113.525-85.946-112.487-86.972-107.383-92.022-99.517-93.73-88.864-92.079-83.055-90.957-77.217-89.106-71.341-86.507-65.475-83.918-58.232-80.334-49.624-75.754-41.914-71.358-34.404-65.742-27.096-58.915-19.8-52.103-15.098-47.652-12.983-45.575-11.93-44.544-10.828-43.814-9.666-43.375-8.516-42.946-7.45-42.429-6.468-41.819L-5.655-47.904-6.615-53.083C-8.559-58.871-9.009-63.64-7.976-67.39-6.957-71.153-4.847-76.049-1.648-82.082 .882-87.005 4.541-89.936 9.328-90.883 14.102-91.831 20.744-91.485 29.245-89.842 46.233-86.556 60.266-79.473 71.337-68.594L81.385-58.721C78.408-64.899 75.934-70.337 74.03-74.94 71.807-79.953 69.447-84.565 66.933-88.795 61.597-98.983 58.445-106.664 57.483-111.843 56.923-114.867 56.709-117.2 56.833-118.835 51.977-126.435 48.984-133.254 47.863-139.294 46.903-144.473 47.321-149.18 49.128-153.405 50.85-158.065 53.598-161.28 57.359-163.047 61.134-164.815 65.475-165.224 70.388-164.273 79.779-162.458 89.109-156.286 98.399-145.75 101.643-142.218 106.71-136.341 113.63-128.139 120.536-119.937 127.598-112.642 134.826-106.252 138.959-102.546 142.995-98.225 146.93-93.299 150.851-88.387 154.566-83.506 158.049-78.668L170.872-61.832C179.782-50.962 187.974-39.908 195.452-28.681 202.918-17.465 211.372-3.864 220.804 12.111 223.306 16.339 227.359 23.051 232.947 32.246 235.061 35.726 237.206 39.188 239.393 42.623 240.884 44.965 242.396 47.294 243.932 49.607 244.653 50.694 245.38 51.778 246.114 52.857 246.531 53.275 246.805 53.926 247.146 54.412 247.518 54.946 247.912 55.466 248.323 55.969 248.767 56.513 249.354 57.002 249.63 57.655 250.119 58.81 249.871 60.235 249.045 61.175 248.938 61.295 248.82 61.411 248.672 61.475 248.426 61.58 248.144 61.523 247.885 61.453 246.725 61.139 245.642 60.554 244.608 59.95 243.412 59.253 242.564 58.32 241.621 57.329 240.593 56.254 239.551 55.193 238.487 54.153 236.675 52.383 234.804 50.67 232.834 49.077 229.794 46.616 227.779 45.076 226.81 44.479 220.191 39.035 214.437 33.553 209.531 28.031 204.094 21.987 193.354 8.255 177.319-13.15 174.513-16.609 169.942-22.692 163.582-31.409 157.216-40.13 151.889-46.777 147.596-51.353L136.956-63.397 115.003-87.615 103.693-99.788C102.472-101.692 100.291-104.191 97.127-107.299 96.716-104.882 96.463-101.605 96.365-97.46 96.004-97.12 96.105-96.575 96.663-95.841 97.237-95.108 97.556-94.529 97.636-94.093" fill="#3d1f1f"/>
<path transform="matrix(1,0,0,-1,432.9751,546.5159)" d="M0 0C-8.194 7.412-17.357 12.711-25.305 19.17-33.577 25.894-40.707 33.654-49.37 39.839-57.716 45.797-67.21 50.339-76.53 56.256-87.082 62.977-96.642 71.941-107.57 78.619-118.571 85.341-130.413 90.71-140.088 98.591-150.901 107.144-158.583 115.513-163.013 123.702-167.17 131.388-167.84 139.004-166.247 146.894-158.196 157.827-147.301 169.486-133.52 181.876L-124.823 190.423-106.2 207.131-97.623 215.032C-93.038 218.824-88.825 222.975-84.97 227.465L-68.483 243.136C-40.946 268.434-16.99 289.497 3.382 306.338 6.463 309.013 10.577 312.617 15.734 317.154 20.877 321.679 25.955 325.782 30.951 329.458 35.934 333.122 41.239 336.13 46.848 338.462 51.84 339.835 56.806 344.542 61.753 352.578 62.803 353.611 63.613 355.639 64.173 358.664L63.485 365.396C62.904 366.941 61.76 367.764 60.059 367.855 58.879 368.456 56.716 368.456 53.594 367.854 50.219 365.953 45.163 363.102 38.427 359.302 31.679 355.503 26.066 351.92 21.559 348.552 19.077 346.824 15.282 343.798 10.178 339.486L-12.706 320.706-24.089 311.639C-59.074 285.731-88.696 260.859-112.939 237.036L-129.187 222.66-136.975 215.537C-136.814 216.397-136.477 217.086-135.944 217.609-128.537 227.36-121.76 239.485-115.614 253.996-114.932 255.375-112.914 259.822-109.584 267.335-106.249 274.845-102.01 282.002-96.865 288.829-92.17 295.558-88.538 303.546-85.955 312.785-83.941 318.995-80.947 325.816-76.985 333.244-73.022 340.661-70.359 345.759-68.976 348.523-62.713 361.38-57.871 371.785-54.457 379.729-51.048 387.664-48.577 395.739-47.055 403.942-45.296 413.43-48.667 417.362-57.157 415.72-62.975 414.595-67.48 411.228-70.671 405.618-73.343 400.519-78.02 392.747-84.694 382.309-91.904 371.339-101.742 355.5-114.204 334.784-114.819 333.827-115.744 332.302-116.998 330.188-118.258 328.072-119.039 326.146-119.358 324.426-119.918 321.401-119.51 318.984-118.118 317.176-117.388 316.479-117.138 315.494-117.377 314.199-117.859 311.609-119.503 308.579-122.292 305.134-124.565 302.198-126.466 298.914-127.998 295.292-128.93 292.615-130.489 290.023-132.672 287.523-137.457 280.357-141.725 272.45-145.477 263.826-149.919 253.809-153.666 246.424-156.697 241.683-164.145 229.417-173.694 210.515-185.325 184.967-191.787 170.774-199.673 158.53-206.214 144.307-210.726 134.498-218.868 121.27-225.331 107.351-229.871 97.573-233.157 90.93-235.066 79.769-236.036 74.1-239.464 67.281-239.879 61.545-240.569 52.009-246.06 43.864-249.677 35.277-253.188 26.945-255.255 17.5-257.467 8.738-263.983-17.079-269.737-36.498-274.742-49.529-275.754-52.64-275.904-55.79-275.201-58.98-275.281-59.414-275.045-60.412-274.462-61.958L-272.019-62.733C-271.289-63.431-270.696-63.726-270.249-63.64-269.356-63.467-268.384-62.87-267.324-61.825L-264.592-57.553-255.552-40.2-210.258 54.067C-208.807 57.253-207.595 59.155-206.613 59.765L-189.586 99.259-189.467 99.905C-187.072 103.955-184.812 108.862-182.688 114.579-180.413 107.978-177.072 101.287-172.229 94.797-165.202 85.226-157.759 76.442-149.364 69.181-140.705 61.691-131.437 54.753-121.65 48.803-112.051 42.969-100.275 40.771-89.908 35.531-79.824 30.414-71.385 25.123-63.636 20.135-54.96 14.552-47.534 8.304-38.798 2.849-30.981-2.031-22.819-7.272-12.559-12.077-5.153-15.545 4.251-18.718 5.491-7.491 5.702-5.574 1.405-1.309 0 0" fill="#3d1f1f"/>
</g>
</svg>
