<svg xmlns="http://www.w3.org/2000/svg" xmlns:xlink="http://www.w3.org/1999/xlink" xmlns:inkscape="http://www.inkscape.org/namespaces/inkscape" version="1.1" width="543.271" height="537.854" viewBox="0 0 543.271 537.854">
<defs>
<clipPath id="clip_1">
<path transform="matrix(1,0,0,-1,0,537.854)" d="M0 537.854H543.271V0H0Z"/>
</clipPath>
</defs>

<g clip-path="url(#clip_1)">
<path transform="matrix(1,0,0,-1,423.1694,263.02583)" d="M0 0C-4.103-4.573-8.472-7.799-9.884-13.78-17.145-45.179-26.826-75.027-40.471-104.403-43.422-110.719-46.373-117.034-49.324-123.35-52.752-130.686-54.896-137.382-60.617-143.391-66.085-149.136-72.814-153.585-79.787-157.286-111.796-174.273-148.039-189.657-185.11-184.124-206.58-180.92-226.132-174.082-244.837-163.205-258.036-155.531-271.19-147.004-281.105-135.208-291.914-122.346-298.912-106.86-303.436-90.74-309.885-67.762-311.009-43.345-308.138-19.716-306.497-6.204-303.513 7.176-299.029 20.034-296.879 26.287-280.745 42.96-273.284 42.287-267.5 41.748-270.592 27.63-272.207 22.657-283.165-12.034-288.88-50.621-278.392-85.916-274.626-98.757-252.508-100.911-239.197-107.496-209.417-122.221-186.357-139.429-152.743-124.572-102.726-102.522-79.8-50.221-73.212-1.48-69.312 26.96-75.297 55.263-93.65 78.389-112.472 101.984-129.683 84.977-145.413 90.019-148.774 96.942-145.551 105.48-137.886 109.176-122.087 116.776-102.926 116.506-88.877 105.145-62.793 83.966-48.54 53.782-47.463 21.445-46.725-.873-51.294-21.78-57.951-43.16-71.197-85.647-98.557-125.514-142.525-145.009-161.374-153.383-182.862-150.365-202.007-144.677-212.165-141.658-222.046-137.773-231.793-133.633-239.375-130.413-251.555-121.913-259.965-123.557-260.446-123.651-260.958-123.797-261.262-124.182-261.512-124.499-261.575-124.922-261.592-125.324-261.918-133.047-242.81-139.482-236.913-142.659-221.921-150.724-208.341-158.859-191.534-163.028-135.129-176.943-87.127-143.329-65.009-97.815-51.901-71.059-42.152-43.767-34.625-15.057-29.11 5.915-27.16 26.691-29.314 48.002-32.472 79.666-54.12 117.179-89.615 124.372-99.834 126.39-111.937 128.675-122.491 126.591-155.366 119.933-189.584 92.573-208.072 67.566-234.021 32.537-252.577-31.195-227.298-68.708-219.502-80.335-207.264-89.75-192.138-91.092-180.777-92.035-169.685-87.596-160.273-81.816-134.052-65.616-116.441-41.21-107.43-13.311-104.945-5.646-97.415 12.503-89.146 13.646-80.539 14.857-87.531-19.226-88.608-24.134-98.692-68.57-137.952-108.976-186.761-113.949-208.676-116.168-228.575-107.899-240.812-91.027-247.466-81.885-253.651-84.304-260.912-76.035-266.627-28.437-261.585 3.227-244.039 47.732-234.694 71.462-221.383 92.776-201.753 110.322-186.078 124.332-166.436 137.054-147.049 145.312-132.802 151.381-116.911 154.581-101.715 151.598-87.279 148.764-73.134 140.596-61.606 131.632-50.495 122.991-38.078 114.266-28.36 103.913-9.94 84.289-2.791 59.927 5.042 35.025 7.796 20.976 7.192 8 0 0" fill="#dbd7c6"/>
<path transform="matrix(1,0,0,-1,317.0164,245.14209)" d="M0 0C-9.546-24.538-24.606-45.448-43.16-64.743-57.213-79.262-56.54-88.273-79.127-92.776-90.219-94.995-100.842-92.911-108.037-83.969-117.314-72.339-121.752-57.682-121.348-42.556-120.472-7.934-111.733 6.588-94.723 35.025-88.338 45.783-65.009 76.035-52.505 65.547-49.817 63.194-49.009 56.605-51.429 53.31L-69.178 29.041C-87.935 3.496-95.261-11.23-97.684-42.69-98.153-49.347-96.003-56.202-93.042-62.255-87.396-73.816-68.574-59.901-62.455-54.79-47.598-42.421-36.506-27.564-27.968-10.823-23.664-2.557-7.396 33.141-19.564 36.772-21.849 37.445-27.699 35.629-28.976 33.41-43.229 9.142-38.252-7.461-55.194-30.925-61.247-39.329-73.681-48.136-84.035-44.844-85.177-44.506-85.715-40.875-85.177-39.733L-73.412-15.734-57.616 21.511C-53.851 30.318-48.875 38.656-42.825 46.183-32.202 59.497-11.699 62.186 .873 49.613 12.1 38.252 5.311 13.58 0 0" fill="#dbd7c6"/>
<path transform="matrix(1,0,0,-1,160.5721,160.7266)" d="M0 0C-2.311-3.167-4.501-6.422-6.562-9.757-9.434-14.402-25.227-38.027-17.573-42.62-14.892-44.229-11.195-44.677-7.565-44.592 2.326-44.362 8.639-37.242 13.279-29.226 16.505-23.655 19.744-18.581 21.832-12.49 23.684-7.086 26.216-1.918 29.32 2.876 42.195 22.759 65.672 35.039 86.478 44.964 93.648 48.384 101.487 49.372 109.052 51.501 116.585 53.621 123.689 57.313 129.801 62.194 130.51 62.76 131.268 63.467 131.266 64.374 131.264 65.654 129.825 66.375 128.605 66.763 118.381 70.016 105.879 73.304 95.463 69.378 87.434 66.351 79.369 63.307 71.904 59.076 62.096 53.518 53.349 46.44 43.838 40.477 35.179 35.049 27.016 28.98 19.53 22.009 12.341 15.315 5.791 7.935 0 0" fill="#dbd7c6"/>
</g>
</svg>
