<svg xmlns="http://www.w3.org/2000/svg" xmlns:xlink="http://www.w3.org/1999/xlink" xmlns:inkscape="http://www.inkscape.org/namespaces/inkscape" version="1.1" width="551.714" height="544.576" viewBox="0 0 551.714 544.576">
<defs>
<clipPath id="clip_1">
<path transform="matrix(1,0,0,-1,0,544.576)" d="M0 544.576H551.714V0H0Z"/>
</clipPath>
</defs>
<g clip-path="url(#clip_1)">
<path transform="matrix(1,0,0,-1,77.7252,275.6941)" d="M0 0C0-110.634 89.687-200.321 200.321-200.321 310.955-200.321 400.641-110.634 400.641 0 400.641 110.634 310.955 200.321 200.321 200.321 89.687 200.321 0 110.634 0 0" fill="#e8abab"/>
<path transform="matrix(1,0,0,-1,280.3444,466.34889)" d="M0 0C-104.496 0-189.501 85.005-189.501 189.49-189.501 293.986-104.496 378.991 0 378.991 104.484 378.991 189.49 293.986 189.49 189.49 189.49 85.005 104.484 0 0 0M200.02 272.339C188.747 299.532 182.003 330.523 161.518 351.019 141.021 371.504 110.031 378.248 82.837 389.521 56.615 400.398 30.153 417.924-.012 417.924-30.164 417.924-56.626 400.398-82.849 389.521-110.042 378.248-141.033 371.504-161.529 351.019-182.014 330.523-188.759 299.532-200.031 272.339-210.909 246.116-228.434 219.654-228.434 189.49-228.434 159.338-210.909 132.875-200.031 106.653-188.759 79.459-182.014 48.457-161.529 27.972-141.045 7.487-110.042 .743-82.849-10.53-56.626-21.407-30.164-38.933-.012-38.933 30.153-38.933 56.615-21.407 82.837-10.53 110.031 .743 141.021 7.487 161.518 27.972 182.003 48.457 188.747 79.459 200.02 106.64 210.897 132.875 228.423 159.338 228.423 189.49 228.423 219.654 210.897 246.116 200.02 272.339" fill="#e8e8d9"/>
<path transform="matrix(1,0,0,-1,457.5833,276.8534)" d="M0 0C0-97.728-79.513-177.241-177.241-177.241-274.979-177.241-354.491-97.728-354.491 0-354.491 97.738-274.979 177.241-177.241 177.241-79.513 177.241 0 97.738 0 0" fill="#e8e8d9"/>
<path transform="matrix(1,0,0,-1,295.5133,324.115)" d="M0 0C-2.606-11.526-12.788-21.991-25.426-23.282-31.11-23.863-36.273-21.717-39.439-17.348-41.164-14.97-42.778-15.605-44.659-13.448-46.135-1.116-44.829 7.086-40.282 18.626-37.862 24.768-34.414 30.292-29.319 34.843-18.519 44.489-8.617 46.488 5.962 48.046 10.851 48.568 15.544 46.854 19.324 44.116 28.664 37.351 34.205 23.964 36.73 13.415 40.078-.575 39.371-7.879 37.004-21.97 36.308-26.109 35.263-30.101 33.676-33.953 29.669-43.681 38.286-47.876 25.552-56.525 23.366-58.009 13.541-62.721 11.164-61.543 10.723-61.324 10.436-60.039 10.63-59.6 13.347-53.445 20.1-54.474 24.4-41.581 26.971-33.874 28.858-26.216 30.278-18.208 32.395-6.27 30.949 8.273 27.979 19.967 27.241 22.873 26.173 25.622 24.646 28.202 22.817 31.292 20.89 34.34 18.42 36.979 16.092 39.466 6.951 44.731 4.865 41.849L10.741 37.262C13.022 35.482 15.68 33.731 17.31 31.359 20.937 26.082 27.895 11.74 22.972 6.245 21.914 5.064 20.77 4.226 20.413 2.68 18.532-5.453 16.022-13.187 12.473-20.817L5.904-34.941C2.477-42.307-3.656-50.007-12.452-52.063-19.277-53.658-26.313-52.741-32.703-50.045-38.108-47.764-43.174-45.506-48.315-42.8-51.25-41.255-53.665-38.849-56.025-36.604L-61.16-31.719C-61.405-31.487-62.206-31.24-62.532-31.274-62.941-31.317-63.463-32.509-63.353-32.937-62.024-38.09-54.427-44.736-49.967-48.145-36.287-58.601-19.269-62.554-3.138-54.101 4.608-50.042 10.242-43.942 13.082-36.042 14.198-32.937 14.93-29.819 15.928-26.642L18.573-18.224 21.125-7.516C21.532-5.81 22.955-2.502 25.45-2.811 28.14-3.145 27.48-8.979 27.076-11.038L25.416-19.484C24.15-25.929 22.925-32.149 20.154-38.158 18.126-42.556 15.709-46.475 12.479-50.199 5.413-58.346-4.664-63.505-15.946-63.968L-23.694-64.285-32.193-64.893C-39.428-65.41-44.089-59.748-48.056-57.648-59.231-51.731-67.58-42.36-70.808-30.646-71.437-28.362-71.805-25.996-71.673-23.602-71.214-15.289-70.523-7.29-69.297 .914-67.741 11.327-61.913 24.596-56.692 33.896-52.72 40.969-47.896 47.207-41.693 52.63-35.096 58.399-27.304 61.757-18.49 63.34-11.61 64.576-5.09 66.114 1.902 66.899 13.142 68.161 20.722 67.27 31.138 63.499 37.181 61.311 42.504 57.927 46.717 53.337 48.703 51.173 53.539 43.178 51.743 41.188 50.547 39.863 44.941 45.995 44.048 47.066 33.956 59.168 19.238 62.993 3.24 61.159L-10.097 59.63C-26.538 57.745-41.529 47.483-49.608 34.074-53.885 26.975-57.065 19.588-59.853 11.836-64.508-1.11-65.937-19.525-54.791-30.021-51.5-33.12-48.254-36.206-44.43-38.797-36.066-44.464-20.601-48.788-10.469-45.223-7.798-44.283-4.493-41.341-4.711-38.939-4.738-38.639-5.904-38.479-6.267-38.59L-14.337-41.048C-21.935-43.363-32.496-40.245-39.422-36.924-44.809-34.34-49.205-30.483-52.174-25.524-58.546-14.879-58.478 .095-54.529 11.444-53.968 13.057-49.792 17.385-47.858 17.21-46.364 17.075-47.166 13.403-47.573 12.116-50.415 3.131-51.908-6.865-49.19-16.021-48.205-19.342-42.478-19.902-39.016-21.613-31.301-25.427-25.333-29.893-16.611-26.041-3.645-20.313 2.285-6.764 4.003 5.873 5.003 13.233 3.451 20.571-1.305 26.559-6.171 32.686-10.643 28.269-14.709 29.574-15.587 31.372-14.747 33.59-12.773 34.543-8.679 36.52-3.71 36.443-.07 33.494 6.689 28.016 10.382 20.196 10.662 11.808 10.854 6.031 9.682 .61 7.952-4.928 4.511-15.946-2.569-26.289-13.976-31.342-23.035-35.355-34.678-29.394-42.99-25.817-43.431-25.628-44.341-25.721-44.693-25.869-45.047-26.018-44.675-27.365-44.294-27.57L-38.429-30.725C-34.543-32.816-31.031-34.919-26.67-35.998-12.057-39.611 .382-30.9 6.13-19.101 9.512-12.16 12.05-5.093 13.999 2.349 15.422 7.786 15.93 13.171 15.376 18.692 14.553 26.9 8.951 36.624-.256 38.481-2.904 39.015-6.042 39.608-8.775 39.056-17.289 37.338-26.16 30.241-30.962 23.758-37.68 14.689-42.487-1.827-35.945-11.554-33.91-14.58-30.746-17.016-26.829-17.353-23.886-17.606-21-16.459-18.566-14.955-11.777-10.761-7.214-4.438-4.872 2.802-4.228 4.79-2.285 9.486-.131 9.784 2.1 10.093 .287 1.271 0 0" fill="#3d1f1f"/>
<path transform="matrix(1,0,0,-1,312.3536,253.7602)" d="M0 0C-19.689 2.857-32.794-1.254-50.277-9.124-54.921-11.214-59.587-13.625-63.074-17.25-69.401-23.824-74.527-30.986-79.17-38.682-84.8-48.014-88.172-57.852-89.466-68.457-89.585-69.429-90.963-77.487-92.923-75.923-95.841-73.594-95.772-65.073-94.912-61.622-93.508-55.991-92.47-50.558-91.936-44.797-91.661-41.837-90.721-39.059-89.146-36.491-85.275-35.2-84.153-34.57-81.854-31.128-78.615-26.278-75.455-21.671-71.626-17.237-68.822-13.989-65.63-11.413-62.097-8.886-58.538-6.342-55.761-2.144-52.093 .6-44.394 6.357-33.648 10.527-24.155 13.139-13.147 16.169 1.22 15.603 12.391 13.129 14.484 12.665 18.874 10.891 18.936 8.728 18.978 7.276 15.237 7.426 13.741 7.693 2.279 9.736-10.938 11.538-22.195 8.363-24.638 7.674-45.538 1.646-44.71-1.587-35.309 .96-29.604 4.009-20.2 5.552-7.989 7.555 23.679 4.877 29.736-7.843 29.893-8.172 29.931-9.067 29.838-9.362 29.347-10.926 19.314-5.632 18.373-5.212 12.479-2.58 6.515-.945 0 0" fill="#3d1f1f"/>
<path transform="matrix(1,0,0,-1,334.0938,285.94059)" d="M0 0C-7.701 7.572-14.61 12.27-26.085 13.86-39.162 15.671-52.294 12.963-63.399 6.345-69.098 2.949-73.414-1.425-76.845-6.753-78.712-9.653-84.412-18.184-88.556-17.618-89.913-14.711-82.931-3.684-81.053-1.128-78.289 2.634-75.064 5.739-70.977 8.35-55.625 18.153-32.665 24.809-14.778 17.613-1.874 12.421 8.366 2.324 15.007-9.016 17.454-13.195 17.696-24.894 15.012-25.069 12.879-25.207 11.861-16.811 11.05-15.109 8.35-9.442 4.578-4.501 0 0" fill="#3d1f1f"/>
<path transform="matrix(1,0,0,-1,268.893,323.52949)" d="M0 0 3.047 6.23 7.148 15.877C8.121 18.165 9.417 20.317 10.982 22.272 13.741 25.719 19.055 26.42 22.3 23.152 25.216 20.216 23.454 13.814 22.085 10.306 19.6 3.94 15.698-1.474 10.889-6.475 7.257-10.251 7.419-12.58 1.576-13.748-1.298-14.323-4.049-13.78-5.918-11.456-8.329-8.456-9.468-4.643-9.369-.735-9.142 8.251-6.872 12.005-2.476 19.378-.813 22.166 5.226 30.004 8.465 27.281 9.172 26.686 9.378 24.972 8.754 24.12L4.146 17.834C-.718 11.199-2.604 7.398-3.232-.77-3.364-2.482-2.8-4.266-2.035-5.832-.569-8.833 4.307-5.224 5.899-3.895 9.74-.689 12.614 3.161 14.835 7.486 15.94 9.636 20.154 18.887 17.009 19.824 16.408 20.003 14.907 19.526 14.572 18.956 10.875 12.668 12.168 8.371 7.778 2.276 6.211 .1 2.981-2.172 .306-1.325-.003-1.227-.144-.294 0 0" fill="#3d1f1f"/>
<path transform="matrix(1,0,0,-1,250.0868,255.80359)" d="M0 0C-14.435-12.139-16.358-19.444-23.852-26.628-24.066-26.833-24.972-27.055-25.246-27.111-27.551-27.577-23.572-14.708-15.637-7.206-4.48 3.341 9.716 14.462 24.423 20.291 35.431 24.655 47.007 26.697 59.015 26.802 61.99 26.828 73.442 26.079 75.153 23.553 76.266 21.909 70.395 21.21 68.604 21.238 45.646 21.593 20.509 17.247 0 0" fill="#3d1f1f"/>
<path transform="matrix(1,0,0,-1,347.697,336.1018)" d="M0 0C-2.51-8.543-3.758-21.923-12.127-29.095-12.377-29.31-13.288-29.531-13.616-29.501-15.23-29.352-12.923-22.513-12.455-21.325-8.56-11.447-6.993-1.303-7.909 9.299-8.742 18.947-11.106 28.129-15.309 36.899L-19.195 45.007C-19.669 45.996-19.924 47.842-19.348 48.829-19.024 49.386-17.159 49.041-16.641 48.595-13.491 45.884-11.021 42.789-9.363 39.123L-4.817 29.068C-3.174 25.433-1.946 21.657-1.143 17.749-.748 15.829 1.568 16.522 2.07 14.126 2.623 11.49 2.619 8.914 1.87 6.364Z" fill="#3d1f1f"/>
<path transform="matrix(1,0,0,-1,235.4749,255.7912)" d="M0 0C-.668-.456-2.801-.548-3.125 .028-4.548 2.55 10.437 13.836 12.493 15.329 21.789 22.08 32.288 26.757 43.588 29.913 50.258 31.776 57.392 34.102 64.149 35.422 72.267 37.007 78.43 31.706 76.64 30.515 73.178 28.211 52.973 31.621 31.41 19.951 26.172 17.117 21.16 14.262 16.316 10.955Z" fill="#3d1f1f"/>
<path transform="matrix(1,0,0,-1,247.2627,237.11569)" d="M0 0C-.89-.414-2.459-.497-3.174-.133-4.197 .388-3.826 1.98-3.018 2.483L12.05 11.695 17.708 15.231C24.187 19.281 33.09 17.047 33.076 15.295 33.064 13.828 28.578 12.677 27.084 12.321 13.92 9.186 6.316 2.939 0 0" fill="#3d1f1f"/>
<path transform="matrix(1,0,0,-1,338.8391,232.73438)" d="M0 0C-5.341 6.26-7.619 14.17-9.642 22.127-7.829 19.806-7.473 17.005-5.531 14.778 .072 8.372 5.427 5.971 11.982 .533 12.853-.198 13.796-1.631 15.514-.927 16.344-.586 17.318 .142 16.532 1.187 13.31 5.466 13.408 5.481 6.116 10.583-.288 15.064-9.24 25.979-12.276 32.701-12.281 32.756-12.28 33.281-12.284 33.336-4.851 31.608 2.076 27.162 8.294 22.146 17.415 14.79 23.584 4.545 26.137-6.811 26.754-9.558 27.545-13.652 27.769-16.457 17.226-14.452 7.046-8.26 0 0M-106.946 34.348C-111.093 35.654-114.141 37.264-117.821 39.552-117.689 39.47-113.613 42.96-113.165 43.283-111.507 44.479-109.785 45.588-108.009 46.602-104.507 48.6-100.793 50.227-96.945 51.431-89.275 53.83-81.097 54.512-73.142 53.349-70.237 52.924-67.398 52.167-64.591 51.322-61.869 50.502-59.233 50.413-56.51 49.766-55.713 49.577-54.367 49.322-53.887 48.553-52.29 45.991-60.952 45.829-62.155 45.659-66.35 45.065-70.547 44.446-74.777 44.171-81.337 43.744-87.954 43.809-94.505 44.363-95.733 44.46-98.068 44.1-99.998 42.444-100.194 42.277-102.479 40.862-101.68 40.447-91.274 35.049-77.452 40.381-65.402 42.288-63.459 42.595-61.066 42.489-59.158 42.079-61.788 39.465-66.277 37.713-69.674 36.322-73.463 34.771-77.419 33.624-81.449 32.905-89.501 31.467-97.895 31.731-105.771 33.995-106.164 34.108-106.556 34.226-106.946 34.348M-3.945 35.369C-7.003 36.851-10.107 38.216-13.201 39.501-15.322 40.383-16.915 40.55-17.357 42.665-17.673 44.181-17.831 45.724-18.135 47.241-18.621 49.669-20.335 51.798-20.764 54.293-21.358 57.752-17.09 59.432-14.956 61.362-13.784 62.422-12.922 63.6-9.142 68.096-7.806 69.685-8.22 69.144-6.996 70.806-6.394 71.625-5.796 72.484-5.563 73.473-5.004 75.851-6.938 76.472-8.911 76.078-11.764 75.509-13.17 73.42-15.068 71.428-17.721 68.642-16.221 70.567-18.96 67.864-24.483 62.413-30.377 57.272-37.048 53.262-38.775 52.225-40.427 51.071-42.073 49.912-43.426 48.96-44.786 47.665-46.495 47.455-47.92 47.28-48.019 48.228-48.567 49.218-50.335 52.41-53.479 53.024-56.62 54.376-60.014 55.837-63.523 57.033-67.106 57.937-74.254 59.74-81.71 60.382-89.051 59.636-102.032 58.318-114.639 52.56-123.627 43.102-124.629 42.048-125.654 40.62-125.132 39.263-124.836 38.495-124.111 37.989-123.417 37.545-114.771 32.017-104.716 28.691-94.472 28.069-84.229 27.447-73.821 29.542-64.659 34.164-60.29 36.368-56.213 39.127-51.794 41.229-50.296 41.942-49.974 41.882-48.566 42.769-47.533 43.419-46.872 43.248-45.84 43.903-45.218 44.298-44.567 44.644-43.946 45.04-43.387 45.397-42.862 46.017-42.204 46.161-43.225 44.658-43.469 44.16-44.48 42.647-45.704 40.814-46.352 39.818-47.312 37.837-50.776 30.689-52.748 22.857-55.46 15.394-56.36 12.916-50.748 10.911-48.37 12.385-42.983 15.725-43.645 31.347-36.161 40.759-33.632 43.941-32.322 47.132-29.907 50.405-29.368 51.135-28.784 52.019-28.138 52.66-27.663 53.131-26.551 53.492-26.303 52.214-26.114 51.244-26.207 50.94-25.968 49.958-25.689 48.809-25.328 47.682-25.007 46.544-24.606 45.119-24.086 43.495-23.726 42.059-20.761 30.251-19.187 18.791-12.992 7.866-7.232-2.291 2.466-10.492 12.861-15.87 16.074-17.533 19.583-18.655 23.134-19.191 25.435-19.538 27.532-20.213 29.896-20.623 30.534-20.734 32.823-21.59 33.981-20.572 34.486-20.129 34.233-17.796 34.223-17.162 34.143-12.195 32.808-7.337 31.531-2.571 29.985 3.204 27.565 8.756 24.072 13.625 17.024 23.448 6.84 30.142-3.945 35.369" fill="#3d1f1f"/>
<path transform="matrix(1,0,0,-1,157.7592,198.54788)" d="M0 0C.974-.212 2.009-.641 3.091-1.275 4.164-1.905 5.045-2.604 5.717-3.353 6.359-4.087 6.822-4.864 7.077-5.659 7.332-6.436 7.402-7.251 7.286-8.089 7.162-8.924 6.853-9.778 6.366-10.62L4.929-13.065-8.113-5.412-6.676-2.967C-6.173-2.121-5.586-1.437-4.914-.927-4.242-.409-3.508-.085-2.681 .077-1.854 .236-.974 .209 0 0M-11.52-10.461C-11.172-10.376-10.879-10.121-10.616-9.681L-9.836-8.344 3.206-15.997 2.418-17.334C2.163-17.763 2.086-18.149 2.171-18.497 2.264-18.837 2.542-19.138 3.021-19.416 3.384-19.632 3.709-19.741 3.994-19.741 4.079-19.741 4.164-19.729 4.242-19.71 4.582-19.629 4.883-19.366 5.138-18.933L9.287-11.871C10.006-10.639 10.454-9.387 10.624-8.143 10.794-6.873 10.685-5.632 10.315-4.454 9.944-3.272 9.295-2.132 8.383-1.074 7.487-.019 6.312 .939 4.883 1.777 3.469 2.608 2.063 3.168 .695 3.446-.68 3.716-1.986 3.732-3.199 3.481-4.419 3.23-5.555 2.72-6.583 1.959-7.603 1.198-8.476 .197-9.187-1.02L-13.336-8.082C-13.598-8.53-13.676-8.912-13.583-9.241-13.49-9.581-13.212-9.882-12.733-10.168-12.269-10.446-11.86-10.539-11.52-10.461" fill="#3d1f1f"/>
<path transform="matrix(1,0,0,-1,166.1345,188.65048)" d="M0 0C.008 1.074 .448 2.148 1.298 3.206 2.202 4.327 3.16 4.999 4.157 5.2 4.412 5.25 4.667 5.273 4.929 5.273 5.555 5.273 6.196 5.126 6.853 4.833L.827-2.654C.263-1.816-.008-.927 0 0M.124-7.008C1.167-7.85 2.241-8.476 3.315-8.87 4.226-9.202 5.13-9.368 6.019-9.368 6.181-9.368 6.343-9.36 6.506-9.349 7.541-9.279 8.561-8.962 9.527-8.41 10.485-7.865 11.389-7.07 12.223-6.038 12.648-5.509 13.042-4.949 13.405-4.377 13.784-3.786 14.116-3.203 14.394-2.65 14.672-2.094 14.919-1.518 15.136-.943 15.337-.402 15.499 .135 15.623 .672 15.731 1.205 15.669 1.65 15.437 1.986 15.213 2.326 14.85 2.565 14.379 2.693 13.946 2.828 13.513 2.843 13.142 2.739 12.833 2.65 12.439 2.387 12.316 1.661 12.192 .804 11.883-.139 11.419-1.136 10.948-2.129 10.345-3.079 9.635-3.964 8.7-5.134 7.657-5.791 6.536-5.911 6.405-5.926 6.281-5.934 6.158-5.934 5.231-5.934 4.226-5.578 3.168-4.883L10.801 4.589C11.118 4.983 11.257 5.343 11.226 5.687 11.188 6.026 10.979 6.363 10.57 6.687 9.596 7.382 8.584 7.904 7.556 8.236 6.521 8.572 5.439 8.692 4.45 8.607 3.423 8.518 2.411 8.198 1.437 7.657 .464 7.12-.448 6.32-1.283 5.281-2.078 4.296-2.65 3.245-2.99 2.171-3.33 1.089-3.438-.012-3.315-1.097-3.191-2.179-2.843-3.237-2.272-4.249-1.7-5.262-.896-6.189 .124-7.008" fill="#3d1f1f"/>
<path transform="matrix(1,0,0,-1,185.9215,169.27298)" d="M0 0C.603-.012 1.213-.166 1.808-.452 2.411-.746 2.99-1.19 3.531-1.781 4.087-2.384 4.481-2.998 4.713-3.616 4.953-4.246 5.053-4.864 5.022-5.447 4.976-6.057 4.813-6.652 4.52-7.216 4.226-7.796 3.817-8.333 3.284-8.816 2.751-9.31 2.187-9.666 1.607-9.863 1.028-10.06 .44-10.129-.116-10.067-.703-9.998-1.259-9.812-1.831-9.499-2.403-9.187-2.944-8.746-3.446-8.201-3.948-7.657-4.342-7.077-4.605-6.482-4.868-5.911-5.007-5.32-5.03-4.728-5.045-4.137-4.929-3.581-4.674-3.025-4.427-2.465-4.033-1.932-3.492-1.441-2.967-.954-2.395-.587-1.8-.34-1.244-.112-.672 .004-.1 .004-.07 .004-.031 .004 0 0M-8.275 4.79H-8.213C-7.881 4.79-7.549 4.945-7.185 5.273L-4.898 7.382-.734 2.851C-1.522 2.874-2.264 2.789-2.982 2.592-4.025 2.306-5.007 1.742-5.903 .919-6.73 .158-7.379-.695-7.819-1.63-8.275-2.573-8.514-3.562-8.538-4.551-8.568-5.555-8.383-6.587-7.981-7.618-7.579-8.642-6.923-9.642-6.05-10.597-5.184-11.543-4.242-12.269-3.245-12.764-2.248-13.254-1.236-13.529-.232-13.583-.1-13.591 .023-13.594 .155-13.594 1.028-13.594 1.893-13.432 2.735-13.108 3.709-12.741 4.613-12.169 5.439-11.412 6.336-10.585 6.985-9.619 7.355-8.53 7.618-7.777 7.765-6.977 7.788-6.146L8.004-6.382C8.375-6.791 8.731-7 9.078-7.019 9.102-7.023 9.117-7.023 9.14-7.023 9.48-7.023 9.812-6.865 10.176-6.536L12.208-4.667C12.586-4.311 12.772-3.964 12.772-3.624 12.787-3.276 12.609-2.909 12.238-2.496 11.86-2.09 11.504-1.881 11.157-1.862 11.134-1.862 11.118-1.858 11.095-1.858 10.763-1.858 10.415-2.024 10.067-2.345L9.31-3.044-3.461 10.84C-3.832 11.249-4.188 11.458-4.543 11.477-4.914 11.497-5.246 11.346-5.632 10.995L-9.318 7.595C-9.696 7.259-9.89 6.907-9.897 6.552-9.913 6.2-9.735 5.829-9.357 5.424-8.97 5.01-8.63 4.81-8.275 4.79" fill="#3d1f1f"/>
<path transform="matrix(1,0,0,-1,192.9293,157.31269)" d="M0 0C-.07-.348 .046-.742 .363-1.201 .664-1.65 .989-1.912 1.329-1.986 1.684-2.055 2.047-1.959 2.48-1.673L5.795 .568 11.698-8.167 7.518-10.995C7.1-11.28 6.861-11.586 6.791-11.945 6.737-12.293 6.861-12.683 7.17-13.135 7.479-13.591 7.796-13.849 8.136-13.923 8.205-13.938 8.283-13.946 8.352-13.946 8.638-13.946 8.955-13.83 9.287-13.606L20.583-5.976C21-5.694 21.24-5.374 21.294-5.038 21.363-4.69 21.247-4.296 20.931-3.836 20.629-3.388 20.305-3.121 19.965-3.048 19.586-2.975 19.231-3.075 18.814-3.361L14.518-6.266 7.726 3.778C7.417 4.238 7.1 4.497 6.76 4.566 6.436 4.636 6.034 4.535 5.609 4.249L.711 .943C.294 .657 .054 .336 0 0" fill="#3d1f1f"/>
<path transform="matrix(1,0,0,-1,194.2273,151.32868)" d="M0 0C.294-.444 .657-.684 1.059-.711 1.082-.715 1.113-.715 1.136-.715 1.507-.715 1.955-.525 2.557-.12 3.191 .309 3.546 .68 3.662 1.043 3.786 1.433 3.693 1.85 3.392 2.291L2.132 4.161C1.839 4.601 1.483 4.841 1.074 4.871H.997C.626 4.871 .178 4.682-.425 4.276-1.059 3.844-1.406 3.477-1.522 3.118-1.646 2.731-1.561 2.31-1.259 1.87Z" fill="#3d1f1f"/>
<path transform="matrix(1,0,0,-1,209.6103,139.6156)" d="M0 0 6.081-1.58C6.22-1.615 6.359-1.634 6.498-1.634 6.776-1.634 7.062-1.565 7.348-1.429 7.757-1.236 8.066-.943 8.275-.545L10.894 5.169C11.033 5.49 11.041 5.818 10.902 6.127 10.778 6.374 10.593 6.583 10.346 6.745 9.805 7.089 9.094 7.07 8.723 6.525L5.663 2.136 .325 2.538C-.07 2.565-.348 2.445-.549 2.19-.726 1.982-.834 1.723-.881 1.414-.912 1.12-.865 .842-.749 .603-.618 .313-.363 .104 0 0" fill="#3d1f1f"/>
<path transform="matrix(1,0,0,-1,219.4691,141.5202)" d="M0 0C-1.028-.089-2.094-.394-3.183-.912-4.002-1.298-4.728-1.765-5.347-2.299-5.972-2.839-6.459-3.438-6.791-4.076-7.147-4.736-7.34-5.439-7.363-6.158-7.394-6.892-7.232-7.645-6.869-8.406-6.637-8.901-6.359-9.318-6.042-9.658-5.717-9.986-5.362-10.249-4.983-10.438-4.589-10.628-4.195-10.755-3.77-10.821-3.338-10.886-2.928-10.894-2.465-10.863-1.777-10.813-1.043-10.685-.301-10.477 .41-10.276 1.136-10.052 1.862-9.805 2.565-9.557 3.23-9.329 3.871-9.113 4.489-8.908 5.053-8.777 5.563-8.719 5.996-8.669 6.336-8.688 6.621-8.781 6.869-8.858 7.046-9.032 7.178-9.31 7.464-9.909 7.433-10.508 7.077-11.141 6.706-11.806 5.918-12.424 4.744-12.988 3.423-13.614 2.248-13.93 1.259-13.93 1.205-13.93 1.159-13.93 1.105-13.927 .1-13.892-.78-13.502-1.584-12.733-1.823-12.505-2.063-12.358-2.31-12.296-2.581-12.227-2.874-12.269-3.183-12.416-3.716-12.671-4.049-12.957-4.195-13.305-4.327-13.656-4.288-14.07-4.064-14.525L-2.279-18.296C-2.047-18.775-1.762-19.057-1.406-19.165-1.298-19.196-1.19-19.211-1.074-19.211-.788-19.211-.464-19.123-.085-18.945 .448-18.686 .773-18.4 .912-18.068 1.059-17.724 1.02-17.307 .788-16.836L.749-16.751C1.491-16.913 2.233-16.959 2.975-16.89 4.018-16.793 5.138-16.461 6.32-15.905 7.317-15.429 8.167-14.881 8.854-14.27 9.542-13.652 10.06-12.984 10.407-12.285 10.755-11.574 10.925-10.828 10.917-10.06 10.91-9.302 10.724-8.541 10.369-7.788 10.106-7.232 9.812-6.791 9.472-6.451 9.132-6.096 8.746-5.818 8.337-5.625 7.912-5.424 7.479-5.304 7.015-5.246 6.567-5.196 6.104-5.192 5.617-5.227 4.929-5.289 4.211-5.432 3.485-5.652 2.766-5.868 2.071-6.096 1.383-6.336 .703-6.575 .054-6.803-.564-7.012-1.151-7.212-1.692-7.344-2.179-7.402-2.588-7.464-2.921-7.44-3.183-7.355-3.4-7.286-3.562-7.135-3.678-6.892-3.933-6.351-3.894-5.857-3.57-5.347-3.206-4.786-2.55-4.276-1.599-3.824-1.02-3.546-.44-3.318 .116-3.145 .641-2.975 1.159-2.874 1.661-2.843 2.117-2.812 2.596-2.859 3.052-2.99 3.485-3.118 3.902-3.334 4.334-3.647 4.597-3.852 5.068-4.029 5.687-3.736 6.227-3.481 6.56-3.191 6.683-2.859 6.83-2.519 6.791-2.105 6.567-1.63L5.146 1.352C4.929 1.823 4.636 2.117 4.28 2.225 3.917 2.333 3.5 2.256 2.959 2.005 2.418 1.746 2.086 1.456 1.962 1.128 1.823 .796 1.854 .394 2.063-.07 1.398 .043 .688 .066 0 0" fill="#3d1f1f"/>
<path transform="matrix(1,0,0,-1,230.8345,130.45609)" d="M0 0 5.787-2.461C5.996-2.546 6.22-2.588 6.444-2.588 6.645-2.588 6.845-2.557 7.062-2.496 7.502-2.357 7.85-2.113 8.097-1.754L11.528 3.512C11.775 3.902 11.744 4.238 11.682 4.454 11.597 4.717 11.443 4.953 11.226 5.146 11.002 5.343 10.747 5.462 10.477 5.501 10.145 5.547 9.828 5.439 9.588 5.173L5.911 1.283 .688 2.465C.232 2.569-.054 2.403-.224 2.248-.44 2.055-.587 1.812-.664 1.526-.734 1.24-.734 .962-.649 .695-.556 .386-.332 .147 0 0" fill="#3d1f1f"/>
<path transform="matrix(1,0,0,-1,247.925,143.52899)" d="M0 0C-.394-.031-.734-.247-1.035-.661-1.607-1.464-2.318-2.167-3.145-2.747-3.964-3.318-4.875-3.759-5.857-4.056-6.598-4.288-7.332-4.373-8.035-4.3-8.723-4.23-9.364-4.033-9.936-3.705-10.523-3.369-11.025-2.921-11.443-2.368-11.875-1.804-12.215-1.132-12.447-.371-12.679 .379-12.756 1.12-12.694 1.839-12.632 2.55-12.439 3.214-12.138 3.813-11.813 4.423-11.389 4.937-10.832 5.385-10.276 5.837-9.611 6.181-8.854 6.413-8.128 6.633-7.471 6.745-6.884 6.749-6.297 6.753-5.787 6.672-5.347 6.502-4.922 6.339-4.559 6.1-4.28 5.787-3.994 5.474-3.786 5.092-3.647 4.651-3.5 4.153-3.253 3.821-2.913 3.658-2.565 3.504-2.14 3.512-1.576 3.685-1.004 3.859-.641 4.095-.456 4.408-.263 4.728-.247 5.142-.394 5.64L-1.862 10.461C-2.009 10.956-2.256 11.288-2.596 11.45-2.921 11.613-3.361 11.601-3.933 11.427-4.504 11.253-4.868 11.018-5.053 10.705-5.246 10.384-5.262 9.971-5.115 9.472L-5.092 9.391C-5.663 9.642-6.281 9.812-6.93 9.89-7.927 10.006-8.955 9.901-10.006 9.581-11.249 9.202-12.331 8.638-13.22 7.904-14.124 7.17-14.834 6.297-15.329 5.323-15.839 4.354-16.14 3.276-16.241 2.125-16.341 .981-16.202-.209-15.831-1.402-15.476-2.584-14.935-3.647-14.224-4.559-13.529-5.455-12.687-6.185-11.721-6.726-10.755-7.259-9.681-7.583-8.522-7.692-8.267-7.715-8.012-7.726-7.749-7.726-6.83-7.726-5.864-7.576-4.875-7.278-3.562-6.876-2.341-6.289-1.228-5.532-.116-4.767 .811-3.89 1.53-2.924 1.847-2.507 1.962-2.063 1.87-1.611 1.785-1.194 1.568-.834 1.228-.541 .78-.139 .41 .035 0 0" fill="#3d1f1f"/>
<path transform="matrix(1,0,0,-1,254.5542,144.4252)" d="M0 0C-.201-.286-.263-.688-.185-1.232-.108-1.777 .07-2.148 .348-2.36 .556-2.527 .827-2.608 1.167-2.608 1.275-2.608 1.398-2.596 1.522-2.581L15.004-.607C15.507-.533 15.862-.348 16.071-.062 16.272 .22 16.333 .626 16.256 1.171 16.179 1.704 16.001 2.082 15.723 2.302 15.445 2.519 15.051 2.592 14.556 2.515L9.418 1.765 7.664 13.757C7.587 14.309 7.41 14.68 7.131 14.889 6.853 15.109 6.444 15.174 5.965 15.105L.116 14.247C-.386 14.174-.742 13.992-.95 13.706-1.151 13.421-1.213 13.019-1.136 12.47-1.059 11.929-.881 11.559-.603 11.342-.325 11.126 .062 11.049 .564 11.126L4.535 11.705 6.057 1.275 1.066 .541C.564 .471 .201 .286 0 0" fill="#3d1f1f"/>
<path transform="matrix(1,0,0,-1,258.031,126.990879)" d="M0 0C.209-.12 .487-.178 .842-.178 1.066-.178 1.313-.155 1.592-.112 2.357-.004 2.836 .178 3.098 .452 3.376 .746 3.477 1.159 3.407 1.688L3.075 3.921C2.982 4.574 2.673 4.879 2.426 5.026 2.086 5.219 1.553 5.246 .834 5.142 .07 5.03-.41 4.848-.672 4.57-.95 4.284-1.051 3.867-.981 3.334L-.649 1.101C-.556 .452-.247 .143 0 0" fill="#3d1f1f"/>
<path transform="matrix(1,0,0,-1,290.6746,141.6593)" d="M0 0-1.028 .015-.904 8.031C-.889 8.932-.997 9.766-1.236 10.519-1.476 11.273-1.839 11.929-2.318 12.459-2.797 12.996-3.384 13.421-4.056 13.714-4.744 14.016-5.501 14.17-6.359 14.185H-6.475C-7.688 14.185-8.839 13.873-9.905 13.251-10.662 12.806-11.365 12.204-12.007 11.45L-11.991 12.316C-11.983 12.853-12.099 13.254-12.331 13.513-12.571 13.772-12.949 13.907-13.459 13.915L-16.565 13.969C-17.013 13.965-17.454 13.857-17.701 13.602-17.956 13.351-18.08 12.965-18.087 12.408-18.087 11.856-17.979 11.466-17.747 11.211-17.508 10.956-17.129 10.821-16.619 10.809L-15.244 10.79-15.414 .247-16.442 .263H-16.496C-16.975 .263-17.338 .143-17.577-.1-17.825-.348-17.948-.734-17.956-1.29-17.964-1.839-17.855-2.233-17.616-2.496-17.369-2.754-16.998-2.882-16.496-2.89L-10.863-2.982H-10.809C-10.33-2.982-9.982-2.866-9.727-2.619-9.48-2.372-9.357-1.986-9.349-1.429-9.341-.873-9.449-.475-9.689-.232-9.928 .031-10.307 .166-10.809 .174L-12.014 .193-11.945 4.767C-11.929 5.652-11.775 6.49-11.474 7.247-11.18 7.993-10.786 8.642-10.299 9.175-9.82 9.7-9.264 10.114-8.638 10.407-8.035 10.685-7.402 10.825-6.753 10.825H-6.676C-6.258 10.817-5.895 10.74-5.602 10.6-5.308 10.458-5.068 10.268-4.875 10.013-4.682 9.758-4.535 9.445-4.443 9.086-4.342 8.719-4.296 8.294-4.304 7.827L-4.427 .07-5.632 .089H-5.687C-6.166 .089-6.521-.031-6.753-.27-7.008-.514-7.139-.904-7.147-1.464-7.155-2.02-7.046-2.414-6.807-2.666-6.567-2.924-6.189-3.06-5.687-3.067L-.054-3.16H-.008C.479-3.16 .842-3.036 1.082-2.793 1.329-2.55 1.453-2.159 1.46-1.603 1.468-1.055 1.36-.661 1.12-.398 .873-.139 .502-.012 0 0" fill="#3d1f1f"/>
<path transform="matrix(1,0,0,-1,301.3781,138.48178)" d="M0 0C.425 0 .881-.039 1.352-.108 2.217-.24 3.091-.44 3.948-.695 4.698-.919 5.416-1.194 6.073-1.514L5.857-2.94C4.953-3.6 3.979-4.103 2.975-4.427 1.947-4.759 .834-4.837-.325-4.663-1.275-4.52-1.978-4.199-2.418-3.72-2.843-3.253-2.998-2.677-2.89-1.966-2.82-1.51-2.673-1.155-2.449-.885-2.233-.61-1.947-.402-1.599-.263-1.221-.112-.796-.027-.301-.008-.201-.004-.1 0 0 0M11.443-7.753C11.52-7.189 11.458-6.791 11.257-6.521 11.056-6.235 10.701-6.05 10.206-5.972L9.604-5.88C9.364-5.845 9.202-5.764 9.102-5.632 8.947-5.424 8.962-5.065 9.009-4.798L10.052 2.04C10.361 4.025 10.036 5.648 9.102 6.853 8.182 8.047 6.621 8.82 4.481 9.148 3.879 9.241 3.26 9.295 2.627 9.31 1.993 9.333 1.368 9.302 .749 9.237 .131 9.167-.487 9.047-1.082 8.878-1.692 8.704-2.256 8.476-2.766 8.205-3.152 8.004-3.407 7.711-3.531 7.344-3.662 6.961-3.608 6.521-3.361 6.042-3.121 5.555-2.812 5.238-2.449 5.107-2.086 4.968-1.677 5.003-1.29 5.208-.541 5.586 .309 5.829 1.228 5.93 2.156 6.026 3.083 6.011 3.971 5.872 5.153 5.694 5.957 5.339 6.343 4.829 6.73 4.311 6.845 3.546 6.691 2.554L6.552 1.634C5.911 1.943 5.246 2.217 4.559 2.449 3.693 2.735 2.774 2.951 1.831 3.098 .858 3.245-.07 3.288-.981 3.218-1.901 3.148-2.72 2.948-3.469 2.604-4.234 2.248-4.875 1.735-5.378 1.074-5.895 .409-6.235-.452-6.397-1.48-6.529-2.337-6.482-3.137-6.266-3.848-6.057-4.562-5.694-5.208-5.192-5.76-4.705-6.305-4.087-6.76-3.345-7.12-2.627-7.467-1.808-7.715-.919-7.85 .409-8.055 1.692-7.997 2.89-7.688 3.886-7.433 4.852-7.043 5.764-6.525 5.81-6.726 5.88-6.915 5.965-7.093 6.135-7.444 6.351-7.749 6.606-7.997 6.869-8.248 7.178-8.453 7.525-8.611 7.865-8.758 8.236-8.862 8.623-8.924L9.72-9.09C9.851-9.109 9.982-9.121 10.098-9.121 10.43-9.121 10.693-9.04 10.894-8.885 11.172-8.673 11.35-8.306 11.443-7.753" fill="#3d1f1f"/>
<path transform="matrix(1,0,0,-1,361.5864,155.44678)" d="M0 0C.371 0 .742-.042 1.128-.127 1.823-.282 2.527-.595 3.199-1.059 3.871-1.518 4.412-2.055 4.806-2.658 5.208-3.253 5.47-3.89 5.586-4.551 5.694-5.215 5.671-5.903 5.517-6.594 5.362-7.29 5.053-7.974 4.613-8.626 4.164-9.275 3.639-9.809 3.044-10.21 2.434-10.612 1.816-10.875 1.151-11.002 .471-11.134-.185-11.122-.896-10.967-1.599-10.809-2.295-10.496-2.967-10.036-3.631-9.577-4.172-9.036-4.574-8.441-4.976-7.838-5.231-7.197-5.347-6.54-5.462-5.884-5.447-5.196-5.285-4.497-5.13-3.801-4.821-3.118-4.373-2.465-3.925-1.808-3.392-1.279-2.797-.885-2.217-.487-1.584-.22-.919-.089-.618-.031-.309 0 0 0M-4.868-12.81C-3.817-13.529-2.704-14.027-1.561-14.286-.904-14.437-.24-14.51 .41-14.51 .889-14.51 1.36-14.471 1.831-14.39 2.928-14.197 3.987-13.784 4.953-13.162 5.942-12.536 6.807-11.682 7.525-10.631 8.244-9.584 8.731-8.472 8.963-7.328 9.187-6.193 9.194-5.061 8.986-3.964 8.769-2.863 8.321-1.812 7.672-.838 7.015 .135 6.158 .993 5.107 1.715 4.056 2.438 2.944 2.932 1.793 3.195 .664 3.45-.471 3.488-1.592 3.295-2.689 3.106-3.74 2.693-4.728 2.067-5.702 1.437-6.567 .587-7.286-.464-8.004-1.51-8.491-2.619-8.723-3.763-8.955-4.902-8.962-6.034-8.746-7.131-8.53-8.228-8.089-9.275-7.433-10.257-6.776-11.234-5.911-12.092-4.868-12.81" fill="#3d1f1f"/>
<path transform="matrix(1,0,0,-1,381.5048,160.8822)" d="M0 0-11.79-12.652-12.903-11.605C-13.289-11.253-13.652-11.095-13.992-11.118-14.348-11.137-14.703-11.342-15.066-11.744-15.445-12.146-15.623-12.509-15.623-12.872-15.615-13.224-15.422-13.575-15.059-13.915L-10.933-17.755C-10.585-18.08-10.237-18.246-9.905-18.246-9.89-18.246-9.866-18.246-9.851-18.242-9.496-18.226-9.14-18.018-8.762-17.612-8.383-17.199-8.205-16.828-8.221-16.488-8.229-16.136-8.422-15.785-8.785-15.445L-9.302-14.966-8.051-13.633-4.427-13.737-4.705-19.246-5.123-18.856C-5.493-18.504-5.849-18.358-6.204-18.365-6.56-18.385-6.915-18.589-7.294-18.999-7.672-19.412-7.85-19.779-7.834-20.123-7.827-20.471-7.634-20.822-7.27-21.166L-3.021-25.122C-2.673-25.447-2.326-25.613-1.986-25.613H-1.932C-1.584-25.593-1.228-25.389-.858-24.983-.479-24.577-.294-24.206-.309-23.867-.309-23.511-.502-23.156-.873-22.812L-1.476-22.252-1.12-13.842 5.146-14.012 5.795-14.61C6.142-14.935 6.49-15.097 6.822-15.097H6.876C7.224-15.082 7.587-14.873 7.966-14.467 8.329-14.066 8.507-13.703 8.507-13.343 8.499-12.992 8.306-12.64 7.943-12.3L3.693-8.344C3.322-7.997 2.928-7.838 2.604-7.854 2.256-7.873 1.908-8.078 1.53-8.483 1.151-8.889 .966-9.256 .981-9.596 .981-9.951 1.167-10.307 1.538-10.655L1.677-10.782-5.223-10.597 3.554-1.159C3.933-.753 4.118-.386 4.103-.043 4.103 .313 3.909 .668 3.539 1.012L.765 3.593C.394 3.94 .062 4.099-.317 4.083-.664 4.064-1.028 3.859-1.406 3.454-1.769 3.052-1.947 2.685-1.947 2.326-1.939 1.978-1.746 1.63-1.383 1.283Z" fill="#3d1f1f"/>
<path transform="matrix(1,0,0,-1,391.9199,180.52249)" d="M0 0-6.266-4.999C-6.985-5.571-7.556-6.193-7.966-6.845-8.398-7.518-8.677-8.213-8.785-8.912-8.893-9.612-8.839-10.33-8.638-11.056-8.429-11.779-8.059-12.478-7.533-13.127-6.753-14.112-5.748-14.834-4.566-15.267-3.732-15.572-2.82-15.731-1.839-15.742L-2.527-16.295C-2.951-16.639-3.183-16.975-3.23-17.33-3.26-17.678-3.121-18.045-2.812-18.431L-1.089-20.594C-.773-20.985-.433-21.201-.085-21.236-.054-21.24-.023-21.24 .015-21.24 .34-21.24 .688-21.085 1.074-20.776 1.507-20.436 1.738-20.096 1.785-19.745 1.831-19.393 1.692-19.018 1.375-18.624L.734-17.821 10.206-10.261C10.639-9.921 10.871-9.581 10.917-9.229 10.964-8.878 10.832-8.514 10.515-8.109L8.028-4.999C7.703-4.597 7.379-4.389 7.031-4.354 6.699-4.331 6.305-4.466 5.864-4.817 5.432-5.169 5.2-5.505 5.153-5.849 5.107-6.197 5.246-6.575 5.563-6.965L6.853-8.584 3.276-11.443C2.565-12.014 1.839-12.408 1.066-12.656 .317-12.903-.41-13.011-1.167-12.98-1.885-12.942-2.542-12.779-3.176-12.478-3.801-12.181-4.311-11.775-4.744-11.234-5.007-10.902-5.177-10.573-5.254-10.261-5.331-9.948-5.339-9.642-5.262-9.333-5.192-9.024-5.045-8.711-4.821-8.402-4.605-8.097-4.311-7.788-3.94-7.495L3.353-1.673C3.786-1.329 4.018-.993 4.064-.641 4.11-.294 3.979 .073 3.662 .479L1.823 2.77C1.522 3.164 1.182 3.384 .827 3.419 .479 3.458 .085 3.299-.34 2.951-.765 2.611-.997 2.272-1.043 1.924-1.089 1.568-.95 1.194-.641 .807Z" fill="#3d1f1f"/>
<path transform="matrix(1,0,0,-1,401.5313,200.32108)" d="M0 0C-.147-.39-.247-.807-.278-1.24-.301-1.684-.286-2.121-.216-2.538-.108-3.21 .07-3.902 .348-4.663 .61-5.37 .896-6.069 1.198-6.757 1.499-7.437 1.785-8.089 2.047-8.711 2.302-9.306 2.488-9.859 2.581-10.365 2.666-10.77 2.673-11.126 2.604-11.431 2.55-11.671 2.395-11.864 2.125-12.018 1.545-12.35 .958-12.374 .286-12.072-.402-11.752-1.089-11.022-1.738-9.894-2.503-8.572-2.921-7.375-2.975-6.339-3.021-5.339-2.704-4.431-2.001-3.562-1.792-3.303-1.669-3.056-1.63-2.812-1.576-2.534-1.646-2.245-1.823-1.943-2.125-1.426-2.434-1.128-2.781-1.016-3.121-.908-3.539-.981-3.994-1.24L-7.595-3.33C-8.051-3.589-8.321-3.906-8.398-4.277-8.476-4.636-8.368-5.057-8.074-5.563-7.78-6.081-7.464-6.386-7.108-6.494-6.722-6.61-6.351-6.533-5.903-6.274L-5.818-6.227C-5.918-6.954-5.903-7.699-5.772-8.449-5.586-9.488-5.161-10.581-4.512-11.705-3.956-12.663-3.345-13.471-2.681-14.097-2.017-14.726-1.313-15.194-.579-15.48 .031-15.715 .626-15.831 1.236-15.831 1.383-15.831 1.53-15.827 1.684-15.812 2.442-15.742 3.168-15.503 3.894-15.082 4.412-14.784 4.844-14.444 5.169-14.073 5.486-13.706 5.733-13.301 5.895-12.872 6.05-12.455 6.142-12.003 6.158-11.531 6.173-11.099 6.142-10.628 6.065-10.133 5.949-9.453 5.748-8.746 5.47-8.039 5.192-7.348 4.906-6.668 4.613-6.003 4.319-5.347 4.041-4.717 3.786-4.114 3.531-3.535 3.353-3.009 3.26-2.538 3.176-2.14 3.16-1.804 3.222-1.538 3.276-1.31 3.407-1.143 3.647-1.008 4.164-.711 4.659-.699 5.192-.989 5.787-1.302 6.351-1.916 6.876-2.816 7.216-3.419 7.487-3.96 7.695-4.47 7.912-5.007 8.051-5.52 8.113-5.996 8.19-6.494 8.174-6.946 8.082-7.39 7.989-7.831 7.804-8.279 7.533-8.723 7.355-9.013 7.216-9.484 7.556-10.079 7.858-10.593 8.174-10.894 8.514-11.002 8.885-11.118 9.279-11.045 9.735-10.782L12.578-9.129C13.034-8.87 13.305-8.549 13.382-8.186 13.459-7.823 13.351-7.402 13.057-6.896 12.764-6.378 12.447-6.077 12.092-5.961 11.744-5.853 11.365-5.918 10.917-6.166 10.971-5.501 10.94-4.81 10.817-4.099 10.639-3.079 10.253-2.044 9.65-1.008 9.171-.193 8.661 .471 8.089 1.031 7.495 1.607 6.861 2.044 6.197 2.337 5.517 2.631 4.806 2.77 4.072 2.735 3.338 2.704 2.596 2.476 1.87 2.055 1.398 1.781 1.004 1.468 .695 1.12 .402 .776 .17 .402 0 0" fill="#3d1f1f"/>
<path transform="matrix(1,0,0,-1,413.2985,229.68869)" d="M0 0-1.337-.529C-2.364-.081-3.284 .502-4.072 1.205-4.875 1.932-5.509 2.855-5.934 3.944-6.281 4.825-6.366 5.598-6.173 6.227-5.988 6.83-5.563 7.251-4.891 7.518-4.574 7.641-4.28 7.703-4.002 7.703-3.917 7.703-3.825 7.695-3.74 7.684-3.384 7.63-3.06 7.483-2.774 7.255-2.449 7.004-2.156 6.672-1.901 6.262-1.615 5.826-1.368 5.327-1.159 4.783-.842 3.975-.572 3.121-.355 2.241-.17 1.503-.054 .749 0 0M2.109 9.747C2.812 9.283 3.454 8.673 4.002 7.931 4.559 7.166 5.007 6.359 5.331 5.528 5.772 4.408 5.872 3.542 5.625 2.955 5.378 2.368 4.775 1.881 3.832 1.51L2.967 1.171C2.921 1.881 2.82 2.596 2.666 3.303 2.48 4.191 2.21 5.095 1.862 5.988 1.507 6.888 1.066 7.722 .549 8.472 .031 9.229-.572 9.847-1.236 10.315-1.916 10.794-2.681 11.091-3.523 11.199-4.365 11.307-5.262 11.176-6.235 10.79-7.046 10.469-7.719 10.033-8.221 9.488-8.731 8.943-9.109 8.306-9.333 7.599-9.557 6.9-9.635 6.131-9.581 5.32-9.519 4.516-9.318 3.682-8.993 2.851-8.499 1.611-7.811 .529-6.93-.355-6.204-1.093-5.378-1.731-4.481-2.252-4.636-2.399-4.767-2.554-4.875-2.72-5.099-3.056-5.246-3.396-5.323-3.728-5.408-4.091-5.432-4.462-5.393-4.833-5.347-5.2-5.254-5.571-5.115-5.938L-4.705-6.973C-4.512-7.452-4.257-7.746-3.94-7.881-3.809-7.935-3.662-7.962-3.508-7.962-3.268-7.962-2.998-7.9-2.689-7.78-2.179-7.576-1.854-7.321-1.708-7.004-1.561-6.679-1.584-6.281-1.769-5.814L-1.986-5.246C-2.078-5.022-2.094-4.841-2.032-4.694-1.924-4.454-1.607-4.288-1.36-4.192L5.084-1.65C6.954-.912 8.19 .178 8.769 1.588 9.326 2.99 9.21 4.725 8.422 6.741 8.198 7.301 7.935 7.869 7.634 8.418 7.348 8.943 7.008 9.476 6.621 10.006 6.243 10.515 5.826 10.987 5.385 11.408 4.937 11.841 4.458 12.219 3.956 12.524 3.6 12.752 3.222 12.833 2.828 12.76 2.434 12.683 2.086 12.408 1.785 11.949 1.483 11.481 1.368 11.068 1.437 10.697 1.507 10.295 1.738 9.975 2.109 9.747" fill="#3d1f1f"/>
<path transform="matrix(1,0,0,-1,154.5542,337.1115)" d="M0 0C.402 0 .78-.035 1.151-.1 1.978-.251 2.704-.56 3.369-1.047 4.018-1.53 4.566-2.175 4.991-2.967 5.408-3.755 5.632-4.566 5.671-5.381 5.702-6.173 5.555-6.973 5.215-7.749 4.875-8.518 4.342-9.268 3.639-9.975 2.928-10.685 2.024-11.334 .966-11.898-.1-12.466-1.143-12.853-2.125-13.038-3.114-13.231-4.002-13.251-4.844-13.096-5.663-12.945-6.405-12.625-7.054-12.142-7.711-11.663-8.236-11.037-8.677-10.226-9.102-9.422-9.326-8.611-9.357-7.807-9.395-6.992-9.241-6.196-8.908-5.443-8.576-4.686-8.051-3.937-7.34-3.226-6.621-2.507-5.725-1.862-4.667-1.302-3.6-.734-2.565-.352-1.576-.158-1.028-.054-.502 0 0 0M-1.684-16.542C-.27-16.306 1.143-15.812 2.627-15.024 4.087-14.247 5.316-13.332 6.289-12.304 7.278-11.269 8.012-10.141 8.491-8.943 8.962-7.734 9.156-6.475 9.071-5.211 9.001-3.921 8.623-2.635 7.95-1.387 7.294-.143 6.436 .892 5.416 1.68 4.389 2.469 3.237 3.006 1.986 3.28 .749 3.558-.595 3.577-2.017 3.342-3.43 3.106-4.844 2.611-6.328 1.823-7.788 1.047-9.017 .131-9.99-.892-10.971-1.92-11.713-3.048-12.184-4.249-12.648-5.443-12.849-6.699-12.764-7.985-12.687-9.272-12.308-10.558-11.644-11.806-10.964-13.069-10.114-14.1-9.102-14.873-8.074-15.657-6.923-16.198-5.679-16.476-5.007-16.627-4.304-16.704-3.577-16.704-2.959-16.704-2.326-16.65-1.684-16.542" fill="#3d1f1f"/>
<path transform="matrix(1,0,0,-1,159.0277,372.2855)" d="M0 0C.301 0 .641 .135 1.035 .409 1.476 .73 1.731 1.051 1.8 1.406 1.854 1.754 1.731 2.136 1.445 2.538L-1.561 6.764 13.807 17.701C14.27 18.022 14.518 18.35 14.572 18.674 14.649 19.026 14.541 19.416 14.24 19.833L10.608 24.925C10.322 25.338 9.998 25.574 9.65 25.628 9.264 25.678 8.916 25.555 8.453 25.226 8.012 24.91 7.757 24.585 7.688 24.234 7.634 23.89 7.749 23.511 8.035 23.102L10.562 19.555-3.523 9.534-6.451 13.648C-6.745 14.058-7.07 14.29-7.417 14.344-7.719 14.394-8.136 14.267-8.607 13.946-9.047 13.625-9.302 13.305-9.372 12.949-9.426 12.594-9.31 12.215-9.024 11.817L-1.12 .707C-.827 .294-.502 .066-.155 .012-.1 .004-.054 0 0 0" fill="#3d1f1f"/>
<path transform="matrix(1,0,0,-1,180.7655,371.6016)" d="M0 0C.023 .352-.131 .719-.471 1.093L-6.351 7.726C-6.691 8.109-7.031 8.298-7.386 8.313-7.402 8.317-7.41 8.317-7.425 8.317-7.765 8.317-8.12 8.144-8.522 7.792-8.939 7.417-9.148 7.07-9.171 6.733-9.202 6.382-9.047 6.011-8.708 5.632L-4.087 .425-14.68-8.966C-15.151-9.384-15.568-9.693-15.97-9.917-16.349-10.129-16.704-10.249-17.044-10.28-17.098-10.284-17.145-10.284-17.191-10.284-17.461-10.284-17.732-10.218-17.995-10.083-18.334-9.913-18.682-9.627-19.03-9.241-19.524-8.669-19.942-7.974-20.251-7.166-20.567-6.328-20.791-5.466-20.915-4.605-20.985-4.176-21.201-3.84-21.549-3.635-21.896-3.43-22.344-3.4-22.901-3.539-23.472-3.678-23.851-3.91-24.044-4.242-24.23-4.559-24.291-4.937-24.23-5.362-24.145-5.903-24.021-6.448-23.859-6.985-23.689-7.537-23.496-8.082-23.264-8.607-23.04-9.113-22.777-9.627-22.483-10.129-22.182-10.616-21.858-11.056-21.51-11.446-20.822-12.231-20.104-12.826-19.385-13.204-18.659-13.594-17.91-13.791-17.152-13.795-16.411-13.795-15.638-13.606-14.873-13.235-14.116-12.864-13.351-12.335-12.594-11.659L-.657-1.07C-.247-.711-.031-.363 0 0" fill="#3d1f1f"/>
<path transform="matrix(1,0,0,-1,183.1375,364.5089)" d="M0 0-1.684-1.499C-2.078-1.847-2.272-2.229-2.248-2.642-2.225-3.025-1.978-3.469-1.468-4.045-.958-4.62-.541-4.922-.17-4.983-.116-4.995-.046-5.003 .023-5.003 .286-5.003 .641-4.91 1.028-4.562L2.72-3.06C3.114-2.708 3.307-2.326 3.284-1.92 3.26-1.549 3.013-1.105 2.503-.518 1.993 .058 1.576 .355 1.205 .425 .811 .487 .409 .355 0 0" fill="#3d1f1f"/>
<path transform="matrix(1,0,0,-1,195.3862,377.7321)" d="M0 0-1.785 5.057C-1.939 5.486-2.233 5.648-2.457 5.71-2.727 5.787-3.021 5.783-3.291 5.694-3.57 5.613-3.801 5.459-3.994 5.235-4.203 4.991-4.288 4.678-4.242 4.319L-3.237-1.885C-3.16-2.302-2.944-2.673-2.588-2.978-2.241-3.28-1.847-3.446-1.406-3.469L4.883-3.573C5.238-3.57 5.54-3.442 5.748-3.199 5.942-2.986 6.057-2.727 6.104-2.434 6.142-2.136 6.104-1.858 5.996-1.623 5.872-1.313 5.602-1.109 5.254-1.043Z" fill="#3d1f1f"/>
<path transform="matrix(1,0,0,-1,193.756,391.5042)" d="M0 0 3.299 3.813C3.631 4.207 3.786 4.593 3.74 4.964 3.693 5.331 3.454 5.694 3.006 6.081 2.557 6.463 2.187 6.645 1.823 6.645H1.8C1.422 6.633 1.066 6.428 .726 6.038L.672 5.969C.579 6.598 .386 7.209 .108 7.796-.309 8.684-.95 9.503-1.785 10.23-2.766 11.083-3.825 11.698-4.922 12.065-6.027 12.435-7.193 12.575-8.229 12.482-9.333 12.389-10.4 12.072-11.419 11.543-12.432 11.014-13.366 10.268-14.185 9.318-15.004 8.379-15.615 7.355-16.001 6.281-16.395 5.208-16.565 4.103-16.496 3.002-16.442 1.916-16.14 .834-15.615-.22-15.089-1.252-14.325-2.214-13.32-3.087-12.285-3.983-11.134-4.709-9.897-5.238-8.669-5.775-7.433-6.096-6.22-6.189-6.158-6.193-6.096-6.196-6.034-6.196-5.594-6.196-5.223-6.057-4.929-5.779-4.636-5.486-4.443-5.111-4.365-4.659-4.273-4.076-4.334-3.639-4.566-3.33-4.798-3.017-5.177-2.843-5.679-2.812-6.676-2.751-7.649-2.523-8.568-2.136-9.496-1.746-10.33-1.221-11.118-.545-11.729-.015-12.184 .564-12.486 1.178-12.795 1.789-12.965 2.438-12.996 3.106-13.027 3.763-12.911 4.435-12.671 5.092-12.416 5.76-12.03 6.405-11.512 7-10.995 7.603-10.407 8.07-9.774 8.391-9.125 8.719-8.483 8.908-7.804 8.962-7.108 9.02-6.467 8.935-5.779 8.704-5.092 8.468-4.45 8.089-3.855 7.576-3.284 7.081-2.828 6.579-2.519 6.081-2.217 5.605-2.009 5.123-1.908 4.659-1.823 4.211-1.839 3.778-1.947 3.369-2.071 2.951-2.272 2.577-2.573 2.229-2.913 1.839-3.067 1.449-3.021 1.074-2.975 .719-2.735 .355-2.287-.039-1.839-.425-1.468-.603-1.105-.603-.711-.618-.355-.402 0 0" fill="#3d1f1f"/>
<path transform="matrix(1,0,0,-1,209.873,394.448)" d="M0 0C-1.066 .68-2.248 1.035-3.508 1.062-4.412 1.105-5.316 .935-6.243 .626L-5.779 1.36C-5.486 1.823-5.377 2.217-5.447 2.557-5.517 2.905-5.764 3.214-6.196 3.488L-8.816 5.161C-9.248 5.432-9.619 5.528-9.975 5.443-10.315 5.362-10.631 5.084-10.917 4.632-11.219 4.168-11.327 3.778-11.257 3.43-11.195 3.087-10.94 2.774-10.508 2.496L-9.349 1.758-15.012-7.135-15.885-6.583C-16.318-6.309-16.735-6.212-17.036-6.297-17.376-6.378-17.678-6.637-17.987-7.116-18.296-7.599-18.396-7.981-18.319-8.313-18.257-8.657-18.002-8.97-17.57-9.245L-12.818-12.269C-12.393-12.54-11.983-12.64-11.667-12.551-11.327-12.47-11.01-12.192-10.724-11.74-10.423-11.28-10.315-10.886-10.384-10.539-10.446-10.191-10.701-9.882-11.134-9.608L-12.146-8.959-9.689-5.099C-9.202-4.338-8.63-3.709-7.989-3.233-7.348-2.751-6.676-2.403-5.988-2.206-5.3-2.005-4.613-1.947-3.917-2.028-3.237-2.105-2.604-2.333-2.024-2.696-1.684-2.917-1.414-3.168-1.236-3.454-1.051-3.724-.95-4.01-.919-4.319-.889-4.655-.927-4.999-1.035-5.347-1.151-5.725-1.329-6.111-1.576-6.494L-5.748-13.034-6.768-12.389C-7.201-12.115-7.556-12.022-7.919-12.107-8.259-12.188-8.576-12.462-8.862-12.918-9.163-13.382-9.272-13.772-9.202-14.12-9.132-14.464-8.885-14.78-8.453-15.051L-3.709-18.076C-3.376-18.284-3.075-18.389-2.797-18.389-2.712-18.389-2.627-18.381-2.55-18.362-2.202-18.28-1.901-18.022-1.599-17.543-1.298-17.067-1.19-16.669-1.267-16.345-1.329-16.001-1.584-15.688-2.009-15.414L-2.874-14.862 1.429-8.097C1.916-7.325 2.264-6.552 2.449-5.799 2.635-5.022 2.658-4.28 2.542-3.589 2.418-2.89 2.148-2.221 1.715-1.599 1.298-1.001 .719-.46 0 0" fill="#3d1f1f"/>
<path transform="matrix(1,0,0,-1,228.0298,411.09419)" d="M0 0C-.031-.719-.209-1.449-.533-2.167-.85-2.886-1.267-3.504-1.785-4.006-2.302-4.512-2.859-4.879-3.492-5.13-4.11-5.378-4.844-5.486-5.509-5.466-6.235-5.443-6.977-5.258-7.719-4.929-8.468-4.593-9.102-4.161-9.588-3.651-10.083-3.141-10.454-2.561-10.693-1.928-10.933-1.29-11.041-.61-11.01 .097-10.979 .815-10.801 1.541-10.477 2.26-10.16 2.978-9.743 3.597-9.225 4.099-8.723 4.593-8.144 4.972-7.518 5.223-6.954 5.447-6.336 5.563-5.694 5.563-5.632 5.563-5.563 5.559-5.501 5.559-4.767 5.532-4.049 5.358-3.291 5.022-2.55 4.694-1.916 4.265-1.414 3.743-.912 3.222-.541 2.639-.309 2.02-.077 1.395 .031 .715 0 0M1.066 6.05C.24 6.896-.765 7.583-1.924 8.093-3.083 8.611-4.273 8.897-5.447 8.947-6.598 8.99-7.749 8.82-8.793 8.429-9.843 8.039-10.809 7.44-11.651 6.648-12.493 5.857-13.189 4.864-13.714 3.697-14.232 2.523-14.502 1.344-14.525 .189-14.541-.977-14.348-2.094-13.938-3.125-13.529-4.161-12.895-5.111-12.076-5.957-11.257-6.795-10.253-7.483-9.086-8.001-7.919-8.518-6.737-8.804-5.563-8.85-5.439-8.858-5.308-8.858-5.184-8.858-4.149-8.858-3.145-8.684-2.21-8.337-1.159-7.946-.201-7.348 .641-6.556 1.499-5.764 2.187-4.767 2.704-3.604 3.222-2.453 3.492-1.271 3.515-.097 3.539 1.051 3.345 2.167 2.928 3.218 2.519 4.253 1.885 5.204 1.066 6.05" fill="#3d1f1f"/>
<path transform="matrix(1,0,0,-1,262.9836,427.86799)" d="M0 0C-.811 .1-1.522 .321-2.163 .676-2.789 1.024-3.315 1.468-3.724 2.009-4.126 2.538-4.427 3.156-4.605 3.848-4.79 4.547-4.829 5.293-4.728 6.069V6.073C-4.636 6.853-4.412 7.568-4.064 8.201-3.732 8.82-3.291 9.349-2.758 9.77-2.225 10.195-1.623 10.492-.927 10.682-.471 10.801 .008 10.859 .51 10.859 .78 10.859 1.059 10.844 1.344 10.809 2.148 10.705 2.874 10.481 3.508 10.129 4.141 9.778 4.659 9.329 5.061 8.804 5.462 8.271 5.764 7.649 5.949 6.958 6.135 6.262 6.173 5.513 6.073 4.732 5.98 3.952 5.756 3.237 5.408 2.608 5.061 1.97 4.628 1.456 4.103 1.035 3.577 .614 2.959 .309 2.272 .127 1.584-.058 .827-.104 0 0M7.811 10.89C7.116 11.763 6.243 12.493 5.208 13.061 4.157 13.633 3.029 13.988 1.754 14.147 .51 14.298-.726 14.232-1.862 13.934-2.998 13.637-4.025 13.142-4.914 12.466-5.81 11.786-6.56 10.933-7.131 9.932-7.719 8.92-8.089 7.769-8.244 6.506-8.406 5.242-8.321 4.029-7.997 2.917-7.688 1.804-7.17 .796-6.475-.085-5.772-.962-4.891-1.688-3.871-2.252-2.836-2.816-1.677-3.183-.41-3.342 .023-3.392 .448-3.419 .873-3.419 1.677-3.419 2.457-3.322 3.206-3.129 4.342-2.832 5.37-2.337 6.258-1.661 7.147-.985 7.889-.131 8.468 .873 9.047 1.862 9.426 3.013 9.588 4.3 9.743 5.567 9.658 6.772 9.341 7.892 9.017 9.024 8.499 10.033 7.811 10.89" fill="#3d1f1f"/>
<path transform="matrix(1,0,0,-1,290.4659,428.7256)" d="M0 0H-.046L-5.231-.085-5.54 18.779C-5.547 19.331-5.671 19.721-5.926 19.972-6.173 20.216-6.529 20.332-7.008 20.332H-7.054L-13.312 20.231C-13.815 20.224-14.185 20.092-14.44 19.83-14.672 19.571-14.78 19.181-14.773 18.628-14.765 18.072-14.641 17.685-14.394 17.438-14.155 17.195-13.791 17.075-13.312 17.075H-13.258L-8.908 17.145-8.63-.143-13.676-.22C-14.178-.232-14.549-.359-14.804-.626-15.035-.881-15.144-1.275-15.136-1.827-15.128-2.38-15.004-2.77-14.757-3.013-14.518-3.257-14.155-3.38-13.676-3.38H-13.621L.008-3.156C.51-3.148 .889-3.013 1.12-2.762 1.368-2.507 1.476-2.113 1.468-1.557 1.46-1.004 1.337-.614 1.082-.367 .842-.12 .487 0 0 0" fill="#3d1f1f"/>
<path transform="matrix(1,0,0,-1,302.1481,410.8238)" d="M0 0C.162 0 .348 .012 .549 .027 1.306 .097 1.785 .251 2.071 .514 2.357 .788 2.48 1.194 2.441 1.727L2.233 3.979C2.179 4.64 1.885 4.964 1.646 5.115 1.337 5.32 .842 5.385 .054 5.32-.719 5.246-1.198 5.088-1.468 4.829-1.769 4.547-1.885 4.137-1.839 3.612L-1.638 1.36C-1.584 .827-1.391 .448-1.051 .232-.819 .077-.479 0 0 0" fill="#3d1f1f"/>
<path transform="matrix(1,0,0,-1,304.6128,413.331)" d="M0 0C-.263 .228-.618 .317-1.159 .274L-9.99-.525C-10.492-.576-10.848-.73-11.079-1.012-11.296-1.29-11.381-1.7-11.334-2.241-11.273-2.801-11.126-3.168-10.863-3.388-10.6-3.624-10.214-3.72-9.704-3.67L-2.774-3.04-1.491-17.137C-1.437-17.759-1.437-18.284-1.499-18.736-1.553-19.177-1.669-19.532-1.847-19.818-2.009-20.092-2.256-20.312-2.557-20.467-2.897-20.637-3.33-20.745-3.855-20.795-4.597-20.861-5.416-20.78-6.243-20.552-7.1-20.312-7.927-19.98-8.708-19.575-9.094-19.362-9.48-19.343-9.866-19.501-10.23-19.656-10.523-20.003-10.74-20.536-10.964-21.073-11.002-21.51-10.863-21.862-10.724-22.205-10.454-22.48-10.06-22.684-9.588-22.932-9.078-23.156-8.538-23.349-7.997-23.542-7.433-23.708-6.876-23.836-6.312-23.963-5.741-24.056-5.192-24.106-4.891-24.129-4.597-24.145-4.319-24.145-4.056-24.145-3.801-24.133-3.546-24.11-2.511-24.017-1.607-23.793-.873-23.442-.131-23.09 .471-22.603 .919-21.989 1.375-21.371 1.684-20.637 1.816-19.826 1.97-19.003 2.001-18.068 1.908-17.056L.464-1.163C.417-.614 .263-.236 0 0" fill="#3d1f1f"/>
<path transform="matrix(1,0,0,-1,321.7265,414.432)" d="M0 0C.788-.398 1.422-1.055 1.901-1.955L-7.464-4.13C-7.386-3.118-7.062-2.26-6.475-1.53-5.795-.676-4.813-.112-3.477 .197-2.078 .522-.904 .452 0 0M5.563-7.479C5.115-7.313 4.69-7.421 4.242-7.823 3.616-8.418 2.797-8.97 1.808-9.465 .827-9.959-.224-10.338-1.329-10.597-2.781-10.933-4.025-10.809-4.983-10.21-5.857-9.662-6.529-8.696-6.992-7.328L4.852-4.582C5.354-4.466 5.687-4.269 5.864-3.987 6.05-3.701 6.088-3.315 5.972-2.785 5.632-1.638 5.153-.603 4.551 .29 3.933 1.201 3.191 1.943 2.341 2.499 1.483 3.063 .487 3.434-.626 3.612-1.7 3.786-2.913 3.724-4.234 3.419-5.462 3.133-6.552 2.662-7.487 2.02-8.429 1.379-9.171 .603-9.758-.348-10.322-1.256-10.701-2.306-10.886-3.473-11.056-4.616-10.995-5.845-10.701-7.128-10.384-8.453-9.928-9.604-9.333-10.554-8.731-11.524-7.989-12.312-7.124-12.899-6.251-13.486-5.262-13.865-4.164-14.027-3.786-14.081-3.384-14.112-2.975-14.112-2.217-14.112-1.414-14.012-.579-13.818 .062-13.672 .703-13.482 1.383-13.247 2.032-13.015 2.65-12.76 3.222-12.49 3.801-12.215 4.358-11.918 4.86-11.609 5.385-11.28 5.849-10.956 6.235-10.639 6.645-10.288 6.869-9.901 6.9-9.488 6.931-9.082 6.799-8.673 6.506-8.279 6.227-7.892 5.911-7.622 5.563-7.479" fill="#3d1f1f"/>
<path transform="matrix(1,0,0,-1,371.9319,399.9414)" d="M0 0C-.34 .081-.711-.008-1.151-.286L-1.553-.549C-1.762-.68-1.955-.719-2.21-.68-2.488-.634-2.805-.514-3.152-.324-3.5-.135-3.886 .116-4.327 .44-4.759 .765-5.208 1.093-5.671 1.429-6.112 1.75-6.606 2.078-7.139 2.403-7.649 2.712-8.174 2.971-8.715 3.172-9.619 3.485-10.485 3.562-11.249 3.388-11.705 3.291-12.146 3.129-12.578 2.909L-10.446 11.709-9.743 12.157C-9.333 12.424-9.078 12.733-9.001 13.088-8.932 13.424-9.047 13.815-9.341 14.29-9.642 14.753-9.951 15.02-10.299 15.101-10.639 15.182-11.01 15.089-11.45 14.815L-16.194 11.775C-16.619 11.501-16.874 11.188-16.936 10.84-17.006 10.492-16.897 10.098-16.596 9.642-16.295 9.179-15.986 8.912-15.646 8.831-15.29 8.742-14.912 8.85-14.487 9.117L-14.317 9.229-16.279 .858-19.509 5.895-18.497 6.544C-18.072 6.822-17.817 7.131-17.755 7.479-17.685 7.827-17.794 8.221-18.095 8.68-18.396 9.152-18.705 9.411-19.045 9.488-19.432 9.581-19.787 9.469-20.204 9.202L-25.389 5.88C-25.814 5.602-26.061 5.293-26.123 4.949-26.192 4.601-26.084 4.211-25.783 3.755-25.497 3.291-25.172 3.017-24.832 2.94-24.5 2.855-24.106 2.951-23.673 3.226L-22.368 4.064-14.216-8.661-15.522-9.499C-15.947-9.774-16.202-10.087-16.264-10.43-16.333-10.778-16.225-11.172-15.924-11.632-15.623-12.107-15.314-12.362-14.974-12.443-14.896-12.462-14.811-12.47-14.734-12.47-14.448-12.47-14.147-12.366-13.815-12.157L-7.61-8.178C-7.201-7.912-6.946-7.603-6.869-7.247-6.799-6.9-6.907-6.506-7.209-6.042-7.51-5.582-7.819-5.316-8.159-5.235-8.522-5.153-8.885-5.246-9.318-5.52L-11.358-6.83-13.938-2.797-13.807-2.248C-13.714-1.831-13.536-1.441-13.274-1.093-13.003-.734-12.702-.452-12.339-.224-11.945 .035-11.535 .185-11.126 .224-10.701 .263-10.322 .201-9.936 .031-9.542-.127-9.148-.336-8.769-.587-8.36-.854-7.95-1.143-7.533-1.453-7.116-1.769-6.676-2.086-6.235-2.403-5.795-2.727-5.339-3.029-4.883-3.299-3.956-3.844-3.168-4.126-2.472-4.157H-2.295C-1.661-4.157-1.113-4.01-.641-3.712L.556-2.944C.966-2.677 1.221-2.368 1.298-2.009 1.368-1.677 1.252-1.283 .958-.811 .657-.348 .348-.081 0 0" fill="#3d1f1f"/>
<path transform="matrix(1,0,0,-1,382.1075,387.6952)" d="M0 0C-.085-1.12-.324-2.179-.726-3.152-1.143-4.157-1.8-5.053-2.689-5.822-3.407-6.451-4.103-6.784-4.759-6.807-4.783-6.811-4.813-6.811-4.837-6.811-5.432-6.811-5.941-6.556-6.397-6.03-6.699-5.687-6.884-5.339-6.946-5.003-7.008-4.647-6.985-4.304-6.853-3.94-6.73-3.562-6.513-3.176-6.212-2.789-5.911-2.387-5.524-1.99-5.061-1.595-4.412-1.024-3.693-.487-2.936 .008-2.287 .429-1.615 .796-.943 1.089ZM6.227 1.808C5.849 1.839 5.517 1.692 5.13 1.356L4.667 .958C4.404 .722 4.064 .502 3.461 1.201L-1.074 6.424C-2.403 7.946-3.848 8.754-5.362 8.82-5.424 8.823-5.493 8.823-5.563 8.823-7.015 8.823-8.545 8.136-10.098 6.776-10.539 6.397-10.971 5.972-11.427 5.474-11.837 5.018-12.223 4.52-12.578 3.994-12.934 3.477-13.243 2.928-13.498 2.364-13.76 1.785-13.954 1.205-14.07 .649-14.17 .228-14.116-.158-13.915-.498-13.714-.842-13.336-1.086-12.802-1.213-12.3-1.337-11.837-1.313-11.504-1.12-11.157-.927-10.925-.595-10.832-.174-10.639 .649-10.276 1.453-9.758 2.217-9.233 2.986-8.615 3.678-7.927 4.273-7.07 5.022-6.312 5.401-5.687 5.401H-5.602C-4.96 5.362-4.304 4.956-3.647 4.195L-3.036 3.492C-3.693 3.206-4.327 2.874-4.945 2.499-5.741 2.017-6.498 1.456-7.209 .842-7.95 .193-8.592-.498-9.109-1.221-9.65-1.951-10.029-2.727-10.253-3.519-10.477-4.319-10.508-5.142-10.33-5.965-10.152-6.791-9.72-7.61-9.04-8.391-8.468-9.047-7.834-9.53-7.155-9.828-6.513-10.11-5.841-10.253-5.153-10.253-5.099-10.253-5.045-10.249-4.991-10.249-4.249-10.226-3.523-10.052-2.766-9.72-2.032-9.395-1.321-8.932-.634-8.341 .363-7.471 1.151-6.459 1.7-5.335 2.156-4.396 2.48-3.411 2.673-2.387 2.859-2.48 3.044-2.55 3.237-2.604 3.6-2.696 3.964-2.731 4.342-2.693 4.713-2.658 5.068-2.557 5.408-2.387 5.741-2.225 6.057-2.013 6.359-1.758L7.201-1.028C7.572-.695 7.773-.355 7.796-.004 7.819 .344 7.657 .719 7.286 1.143 6.923 1.561 6.575 1.777 6.227 1.808" fill="#3d1f1f"/>
<path transform="matrix(1,0,0,-1,401.4695,369.3684)" d="M0 0C-.587 .131-1.02 .089-1.352-.112-1.7-.325-1.916-.668-1.97-1.097-2.086-1.97-2.302-2.836-2.596-3.662-2.89-4.47-3.299-5.173-3.794-5.756-4.134-6.15-4.474-6.444-4.806-6.614-5.107-6.776-5.408-6.853-5.748-6.822-6.096-6.799-6.451-6.687-6.838-6.479-7.255-6.251-7.695-5.938-8.144-5.547L-12.64-1.677-8.228 3.438C-7.904 3.817-7.757 4.191-7.788 4.543-7.819 4.891-8.043 5.235-8.46 5.594-8.87 5.949-9.233 6.127-9.596 6.1-9.959 6.081-10.291 5.88-10.624 5.493L-15.028 .379-18.682 3.523C-19.03 3.828-19.37 3.975-19.702 3.975-19.741 3.975-19.787 3.971-19.833 3.967-20.197 3.925-20.56 3.685-20.946 3.233-21.332 2.781-21.518 2.387-21.502 2.02-21.495 1.646-21.286 1.283-20.892 .95L-17.245-2.194-19.293-4.57C-19.617-4.953-19.764-5.323-19.733-5.663-19.71-6.019-19.493-6.37-19.068-6.73-18.674-7.07-18.319-7.236-17.979-7.236H-17.925C-17.57-7.216-17.23-7.015-16.897-6.629L-14.858-4.257-10.183-8.275C-9.403-8.947-8.63-9.465-7.889-9.812-7.139-10.16-6.39-10.338-5.663-10.338H-5.594C-4.844-10.326-4.095-10.118-3.369-9.72-2.658-9.326-1.955-8.723-1.267-7.927-.935-7.533-.61-7.085-.324-6.594-.054-6.131 .201-5.629 .433-5.061 .664-4.512 .858-3.964 .997-3.434 1.151-2.913 1.259-2.38 1.352-1.8 1.406-1.364 1.344-.985 1.151-.688 .95-.355 .572-.131 0 0" fill="#3d1f1f"/>
<path transform="matrix(1,0,0,-1,409.8294,358.0185)" d="M0 0C-.108-1.089-.479-2.136-1.105-3.121-1.622-3.933-2.194-4.45-2.812-4.663-3.376-4.868-3.994-4.779-4.613-4.389-4.991-4.149-5.262-3.871-5.416-3.562-5.586-3.245-5.656-2.893-5.648-2.527-5.632-2.121-5.54-1.684-5.362-1.236-5.184-.78-4.929-.282-4.605 .24-4.141 .974-3.608 1.696-3.021 2.387-2.526 2.971-1.993 3.512-1.429 3.998L-.209 3.226C.039 2.132 .108 1.047 0 0M5.231 6.745C4.891 6.672 4.582 6.421 4.319 5.996L3.987 5.478C3.855 5.277 3.724 5.161 3.57 5.126 3.322 5.076 2.99 5.223 2.758 5.37L-3.091 9.067C-4.79 10.145-6.405 10.508-7.881 10.129-9.349 9.758-10.678 8.642-11.829 6.811-12.177 6.266-12.478 5.717-12.717 5.188-12.996 4.601-13.227 4.01-13.405 3.438-13.598 2.843-13.73 2.225-13.815 1.611-13.9 .962-13.915 .367-13.869-.201-13.838-.634-13.683-.985-13.39-1.252-13.096-1.526-12.663-1.638-12.123-1.615-11.589-1.588-11.18-1.433-10.902-1.151-10.624-.858-10.5-.475-10.539-.058-10.585 .788-10.461 1.661-10.183 2.546-9.897 3.446-9.511 4.288-9.04 5.038-8.398 6.05-7.749 6.637-7.124 6.788-6.513 6.942-5.748 6.73-4.898 6.196L-4.118 5.698C-4.659 5.238-5.177 4.736-5.663 4.195-6.274 3.519-6.838 2.766-7.348 1.959-7.881 1.124-8.298 .274-8.584-.564-8.885-1.429-9.032-2.279-9.024-3.094-9.009-3.933-8.793-4.728-8.391-5.459-7.981-6.196-7.332-6.849-6.451-7.41-5.717-7.873-4.976-8.151-4.234-8.244-4.025-8.271-3.824-8.283-3.616-8.283-3.083-8.283-2.557-8.198-2.055-8.028-1.352-7.796-.68-7.41-.07-6.88 .549-6.355 1.097-5.702 1.576-4.945 2.295-3.817 2.758-2.623 2.959-1.395 3.121-.379 3.152 .661 3.044 1.708 3.245 1.669 3.469 1.653 3.647 1.665 4.025 1.677 4.389 1.754 4.728 1.893 5.068 2.032 5.378 2.233 5.663 2.492 5.926 2.739 6.166 3.029 6.382 3.369L6.977 4.311C7.247 4.732 7.34 5.123 7.263 5.462 7.185 5.802 6.915 6.115 6.444 6.413 5.988 6.706 5.586 6.818 5.231 6.745" fill="#3d1f1f"/>
<path transform="matrix(1,0,0,-1,424.7488,332.7226)" d="M0 0C-.525 .209-.935 .247-1.244 .116-1.568-.019-1.831-.325-2.017-.788L-3.971-5.594-21.456 1.491C-21.981 1.7-22.368 1.738-22.7 1.607-23.024 1.472-23.287 1.167-23.472 .703L-25.821-5.092C-26.014-5.544-26.038-5.942-25.898-6.289-25.752-6.614-25.435-6.869-24.925-7.07-24.415-7.278-24.006-7.313-23.681-7.185-23.357-7.054-23.094-6.749-22.908-6.281L-21.27-2.248-5.246-8.742-7.147-13.421C-7.325-13.88-7.355-14.278-7.216-14.61-7.07-14.931-6.753-15.186-6.235-15.395-5.926-15.522-5.648-15.584-5.408-15.584-5.262-15.584-5.123-15.561-4.999-15.507-4.659-15.375-4.396-15.07-4.226-14.607L.904-1.97C1.089-1.491 1.113-1.105 .974-.78 .827-.464 .51-.209 0 0" fill="#3d1f1f"/>
</g>
</svg>
